<svg viewBox="0 0 93 19" fill="none" xmlns="http://www.w3.org/2000/svg">
<path d="M53.0539 16.9905C51.5559 16.1225 50.0849 15.1745 48.5239 14.4145C46.0609 13.1435 43.3369 12.5485 40.7299 11.6575C36.5189 10.3375 33.0059 7.03045 28.4379 6.79645C28.4019 6.69945 28.3279 6.61945 28.2249 6.59245C27.4559 6.37745 26.6939 6.14345 25.9499 5.85245C24.7309 5.36645 23.6079 4.67345 22.4129 4.13745C21.1819 3.51945 19.7229 3.62545 18.5509 2.88045C16.6459 1.78245 15.0219 -0.364548 12.7099 1.32045C12.4169 1.51845 12.0179 1.58245 11.6679 1.48045C10.8199 1.20845 10.2409 0.413451 9.39387 0.130451C8.69887 -0.0495488 8.00787 0.312452 7.46887 0.725452C5.68887 2.23345 3.48287 1.38345 1.52087 0.753452C0.80987 0.452452 -0.126129 0.592451 0.491871 1.49945C2.28987 3.13045 4.37987 4.47745 6.48887 5.68545C8.52487 6.80645 10.7359 7.62245 13.0229 8.05145C18.2879 9.26145 23.5169 6.95445 28.8089 7.51945C32.1689 7.83345 34.9139 9.80645 37.8789 11.2405C37.0839 11.3105 36.2869 11.3485 35.4849 11.3325C34.3689 11.3135 33.2849 11.0215 32.1799 10.9045C31.3399 10.8835 30.5579 11.1955 29.7739 11.4525C28.9209 11.7055 28.0159 11.3265 27.1569 11.2415C26.2409 11.1315 25.2409 11.2565 24.4499 11.7575C22.5329 13.4925 21.7959 12.4255 19.6479 12.4535C18.8659 12.5455 18.3019 13.1645 17.6429 13.5355C16.8749 14.0005 16.0229 14.1995 15.1079 14.2085C13.6999 14.2805 12.1789 13.8565 10.8219 14.3795C10.4679 14.5365 10.1729 14.8765 10.2769 15.2845C10.5949 16.1055 11.8619 16.2245 12.5859 16.6015C18.4499 18.8615 24.8409 19.0925 30.5039 16.1165C33.5309 14.6425 36.3319 12.5775 39.7279 12.0315C39.9129 12.0985 40.0979 12.1655 40.2869 12.2255C42.3489 12.9605 44.4979 13.4525 46.5369 14.2665C48.7369 15.1355 50.7239 16.4225 52.7609 17.6065C53.1609 17.8045 53.4499 17.1745 53.0539 16.9905Z" fill="#F7E6E1"/>
<path d="M91.3396 0.753134C89.3786 1.38413 87.1726 2.23313 85.3916 0.725134C84.8526 0.313134 84.1616 -0.048866 83.4666 0.131134C82.6206 0.413134 82.0416 1.20813 81.1926 1.48113C80.8426 1.58313 80.4436 1.51913 80.1506 1.32113C77.8396 -0.364865 76.2146 1.78213 74.3106 2.88113C73.1376 3.62513 71.6786 3.52013 70.4486 4.13813C69.2526 4.67313 68.1306 5.36613 66.9106 5.85313C66.1676 6.14313 65.4046 6.37713 64.6356 6.59213C64.5336 6.62013 64.4586 6.69913 64.4226 6.79613C59.8556 7.03013 56.3426 10.3371 52.1316 11.6571C49.5246 12.5491 46.8006 13.1441 44.3366 14.4141C42.7756 15.1741 41.3056 16.1231 39.8066 16.9901C39.4116 17.1751 39.6996 17.8041 40.0996 17.6061C42.1366 16.4221 44.1246 15.1351 46.3236 14.2661C48.3626 13.4531 50.5116 12.9601 52.5746 12.2261C52.7626 12.1661 52.9486 12.0991 53.1336 12.0321C56.5296 12.5781 59.3306 14.6421 62.3576 16.1161C68.0206 19.0931 74.4106 18.8611 80.2756 16.6021C80.9996 16.2241 82.2656 16.1061 82.5836 15.2841C82.6886 14.8771 82.3926 14.5371 82.0396 14.3791C80.6826 13.8561 79.1616 14.2811 77.7536 14.2081C76.8386 14.1991 75.9866 14.0001 75.2186 13.5351C74.5586 13.1641 73.9956 12.5461 73.2136 12.4541C71.0656 12.4261 70.3276 13.4921 68.4116 11.7571C67.6206 11.2561 66.6196 11.1321 65.7036 11.2411C64.8446 11.3261 63.9406 11.7051 63.0866 11.4521C62.3036 11.1951 61.5206 10.8831 60.6806 10.9041C59.5756 11.0221 58.4916 11.3141 57.3756 11.3321C56.5746 11.3481 55.7776 11.3101 54.9826 11.2411C57.9476 9.80613 60.6926 7.83413 64.0516 7.51913C69.3436 6.95413 74.5726 9.26213 79.8386 8.05213C82.1246 7.62213 84.3356 6.80613 86.3726 5.68513C88.4806 4.47813 90.5716 3.13013 92.3696 1.49913C92.9876 0.592134 92.0506 0.453134 91.3396 0.753134Z" fill="#F7E6E1"/>
</svg>
