<svg viewBox="0 0 132 27" fill="none" xmlns="http://www.w3.org/2000/svg">
<path d="M75.0463 24.6882C72.9183 23.4552 70.8293 22.1092 68.6113 21.0292C65.1133 19.2242 61.2433 18.3782 57.5403 17.1132C51.5583 15.2382 46.5683 10.5402 40.0803 10.2082C40.0293 10.0702 39.9233 9.95725 39.7773 9.91825C38.6853 9.61325 37.6023 9.28025 36.5463 8.86725C34.8143 8.17625 33.2193 7.19225 31.5213 6.43125C29.7733 5.55325 27.7003 5.70325 26.0353 4.64625C23.3303 3.08525 21.0223 0.0352483 17.7393 2.43025C17.3233 2.71125 16.7553 2.80225 16.2583 2.65725C15.0533 2.27025 14.2313 1.14025 13.0293 0.739248C12.0413 0.484248 11.0603 0.998248 10.2943 1.58325C7.76528 3.72625 4.63229 2.51925 1.84529 1.62325C0.835288 1.19725 -0.494718 1.39425 0.383282 2.68425C2.93728 5.00025 5.90629 6.91425 8.90129 8.62925C11.7943 10.2212 14.9353 11.3812 18.1833 11.9912C25.6623 13.7092 33.0903 10.4322 40.6073 11.2352C45.3793 11.6812 49.2783 14.4832 53.4903 16.5212C52.3603 16.6192 51.2283 16.6742 50.0903 16.6512C48.5043 16.6242 46.9653 16.2102 45.3963 16.0432C44.2023 16.0132 43.0913 16.4562 41.9783 16.8212C40.7653 17.1812 39.4803 16.6422 38.2603 16.5212C36.9593 16.3662 35.5383 16.5432 34.4153 17.2542C31.6923 19.7192 30.6453 18.2042 27.5933 18.2432C26.4833 18.3752 25.6823 19.2532 24.7453 19.7802C23.6543 20.4402 22.4443 20.7232 21.1443 20.7362C19.1453 20.8392 16.9843 20.2362 15.0563 20.9792C14.5543 21.2032 14.1353 21.6852 14.2823 22.2652C14.7353 23.4312 16.5343 23.5992 17.5623 24.1362C25.8933 27.3462 34.9703 27.6742 43.0143 23.4462C47.3143 21.3522 51.2933 18.4202 56.1163 17.6452C56.3793 17.7402 56.6423 17.8352 56.9103 17.9202C59.8403 18.9632 62.8933 19.6632 65.7893 20.8192C68.9133 22.0532 71.7363 23.8812 74.6303 25.5632C75.1983 25.8442 75.6083 24.9502 75.0463 24.6882Z" fill="#F7E6E1"/>
<path d="M129.43 1.62337C126.644 2.51937 123.511 3.72637 120.981 1.58337C120.215 0.99737 119.234 0.48437 118.247 0.73937C117.044 1.14037 116.222 2.26937 115.017 2.65737C114.52 2.80137 113.952 2.71037 113.536 2.42937C110.253 0.0353708 107.946 3.08537 105.24 4.64637C103.575 5.70337 101.502 5.55337 99.7551 6.43137C98.0561 7.19237 96.4621 8.17637 94.7301 8.86737C93.6741 9.28037 92.5901 9.61237 91.4981 9.91837C91.3531 9.95637 91.2471 10.0704 91.1961 10.2084C84.7081 10.5404 79.7171 15.2374 73.7351 17.1134C70.0321 18.3784 66.1631 19.2244 62.6641 21.0284C60.4471 22.1084 58.3581 23.4554 56.2291 24.6884C55.6671 24.9504 56.0771 25.8444 56.6461 25.5634C59.5391 23.8814 62.3621 22.0534 65.4861 20.8194C68.3821 19.6634 71.4351 18.9634 74.3651 17.9204C74.6331 17.8344 74.8961 17.7394 75.1591 17.6444C79.9831 18.4204 83.9621 21.3524 88.2621 23.4464C96.3061 27.6744 105.383 27.3464 113.714 24.1364C114.742 23.5994 116.541 23.4314 116.993 22.2644C117.141 21.6854 116.722 21.2034 116.219 20.9794C114.292 20.2354 112.131 20.8394 110.131 20.7364C108.831 20.7234 107.621 20.4404 106.53 19.7804C105.593 19.2534 104.793 18.3754 103.682 18.2434C100.631 18.2044 99.5841 19.7184 96.8611 17.2544C95.7381 16.5434 94.3161 16.3664 93.0151 16.5214C91.7951 16.6424 90.5101 17.1814 89.2981 16.8214C88.1851 16.4564 87.0731 16.0134 85.8801 16.0424C84.3111 16.2094 82.7711 16.6244 81.1851 16.6514C80.0471 16.6734 78.9151 16.6194 77.7851 16.5204C81.9971 14.4834 85.8961 11.6814 90.6691 11.2344C98.1851 10.4324 105.613 13.7094 113.093 11.9914C116.341 11.3814 119.481 10.2214 122.374 8.62937C125.369 6.91437 128.339 5.00037 130.893 2.68337C131.771 1.39437 130.441 1.19637 129.43 1.62337Z" fill="#F7E6E1"/>
</svg>
