<svg viewBox="0 0 221 44" fill="none" xmlns="http://www.w3.org/2000/svg">
<path d="M67.2929 11.3533C67.2699 11.5163 67.2149 11.6723 67.1299 11.8133C67.0449 11.9533 66.9329 12.0753 66.7989 12.1713C66.3359 12.5383 65.8169 12.8283 65.2619 13.0313L57.7579 20.3943H61.8769L61.6649 20.9443H57.2079L49.5489 28.4773C50.9559 27.5973 52.5729 27.1103 54.2319 27.0663C54.7079 27.0633 55.1819 27.1253 55.6419 27.2493C56.1509 27.4153 56.6499 27.6083 57.1369 27.8283C57.7439 28.0823 58.2519 28.2653 58.6609 28.3923C59.1179 28.5293 59.5939 28.5963 60.0709 28.5893C60.3269 28.6133 60.5849 28.5833 60.8279 28.5013C61.0709 28.4183 61.2939 28.2853 61.4819 28.1103C61.6489 27.9373 61.7779 27.7313 61.8609 27.5053C61.9429 27.2793 61.9779 27.0383 61.9609 26.7983C61.9609 25.7263 61.3119 25.0773 60.0149 24.8233L60.1139 24.2733C60.8729 24.3903 61.5829 24.7233 62.1589 25.2323C62.4459 25.5163 62.6689 25.8583 62.8119 26.2353C62.9559 26.6123 63.0169 27.0163 62.9909 27.4193C63.0089 27.8583 62.9379 28.2973 62.7829 28.7093C62.6279 29.1213 62.3919 29.4983 62.0879 29.8173C61.5639 30.2983 60.9059 30.6103 60.2009 30.7113C59.4959 30.8123 58.7769 30.6963 58.1389 30.3813C57.5849 30.0683 57.0599 29.7043 56.5729 29.2953C56.0909 28.8893 55.5709 28.5303 55.0219 28.2233C54.5549 27.9703 54.0289 27.8433 53.4979 27.8563C52.8669 27.8513 52.2379 27.9463 51.6359 28.1383C50.9029 28.4033 50.1869 28.7143 49.4919 29.0693C49.2039 29.5003 48.8519 29.8853 48.4489 30.2113C48.1829 30.4543 47.8469 30.6073 47.4899 30.6493C47.4189 30.6553 47.3489 30.6463 47.2829 30.6223C47.2169 30.5973 47.1569 30.5583 47.1089 30.5083C47.0509 30.4703 47.0049 30.4173 46.9749 30.3553C46.9459 30.2933 46.9329 30.2243 46.9389 30.1553C46.9619 29.9913 47.0189 29.8333 47.1059 29.6923C47.1939 29.5513 47.3099 29.4303 47.4469 29.3373C47.9039 28.9603 48.4239 28.6683 48.9849 28.4773L56.5869 21.0013H52.1159L52.3129 20.3943H57.0529L64.6129 12.9753C63.2039 13.8513 61.5879 14.3383 59.9299 14.3863C59.4529 14.3923 58.9769 14.3263 58.5199 14.1883C58.0099 14.0303 57.5109 13.8423 57.0249 13.6243C56.4039 13.3703 55.8959 13.1733 55.4869 13.0463C55.0289 12.9133 54.5529 12.8513 54.0769 12.8623C53.8329 12.8493 53.5879 12.8843 53.3579 12.9673C53.1279 13.0493 52.9169 13.1773 52.7369 13.3423C52.5749 13.5183 52.4499 13.7253 52.3699 13.9503C52.2899 14.1763 52.2559 14.4153 52.2709 14.6543C52.2709 15.7113 52.9199 16.3743 54.2179 16.6283L54.1049 17.1643C53.3439 17.0513 52.6329 16.7173 52.0599 16.2053C51.7989 15.9213 51.5999 15.5873 51.4739 15.2233C51.3479 14.8593 51.2969 14.4733 51.3259 14.0893C51.3079 13.6513 51.3769 13.2133 51.5299 12.8013C51.6819 12.3903 51.9149 12.0123 52.2149 11.6923C52.5219 11.3743 52.8939 11.1253 53.3049 10.9623C53.7159 10.8003 54.1569 10.7263 54.5979 10.7463C55.1469 10.7373 55.6899 10.8633 56.1779 11.1133C56.7289 11.4373 57.2529 11.8043 57.7439 12.2133C58.2029 12.6333 58.6979 13.0113 59.2249 13.3423C59.6889 13.5883 60.2079 13.7143 60.7339 13.7083C61.3749 13.6873 62.0079 13.5633 62.6099 13.3423C63.3389 13.0703 64.0499 12.7553 64.7399 12.3973C65.0329 11.9733 65.3839 11.5933 65.7839 11.2683C66.0509 11.0203 66.3929 10.8663 66.7569 10.8313C66.8269 10.8273 66.8969 10.8383 66.9619 10.8623C67.0279 10.8863 67.0879 10.9243 67.1379 10.9723C67.1959 11.0153 67.2419 11.0743 67.2689 11.1413C67.2959 11.2083 67.3049 11.2813 67.2929 11.3533Z" fill="#E1A192"/>
<path d="M77.505 25.8955H78.027L77.35 27.8845C77.087 28.7155 76.599 29.4575 75.939 30.0285C75.456 30.4445 74.843 30.6795 74.204 30.6915C73.898 30.7015 73.593 30.6395 73.316 30.5075C73.068 30.3965 72.857 30.2145 72.709 29.9855C72.546 29.6985 72.464 29.3715 72.47 29.0405C72.474 28.6115 72.536 28.1845 72.653 27.7715C72.78 27.3055 72.865 26.9955 72.907 26.8685L73.387 24.9225C72.779 26.5355 71.885 28.0265 70.749 29.3235C70.402 29.7405 69.972 30.0815 69.486 30.3245C69 30.5675 68.47 30.7065 67.928 30.7335C67.563 30.7565 67.199 30.6865 66.869 30.5315C66.539 30.3755 66.253 30.1395 66.038 29.8445C65.584 29.1315 65.371 28.2905 65.431 27.4475C65.487 25.7485 65.885 24.0795 66.602 22.5385C67.32 20.8165 68.359 19.2465 69.663 17.9125C70.134 17.3545 70.713 16.8985 71.365 16.5715C72.017 16.2445 72.729 16.0525 73.457 16.0075C73.686 16.0015 73.913 16.0485 74.12 16.1435C74.328 16.2385 74.511 16.3805 74.656 16.5575C74.991 16.9905 75.178 17.5195 75.192 18.0675L75.629 16.3885C76.475 16.3695 77.313 16.2415 78.126 16.0075L74.741 27.9835C74.741 28.0535 74.741 28.1945 74.628 28.4065C74.575 28.5945 74.546 28.7885 74.543 28.9845C74.543 29.4355 74.741 29.6615 75.135 29.6615C75.939 29.6615 76.631 28.7445 77.223 26.8405L77.505 25.8955ZM70.58 28.7165C71.399 27.7735 72.096 26.7315 72.653 25.6135C73.342 24.2935 73.899 22.9095 74.317 21.4805L74.797 19.5625C74.814 19.3655 74.814 19.1675 74.797 18.9695C74.832 18.3615 74.695 17.7555 74.402 17.2205C74.297 17.0245 74.141 16.8615 73.949 16.7495C73.757 16.6375 73.538 16.5805 73.316 16.5865C72.526 16.5865 71.708 17.1785 70.847 18.3775C69.902 19.7415 69.165 21.2395 68.661 22.8205C68.102 24.4215 67.806 26.1035 67.787 27.7995C67.748 28.3425 67.83 28.8865 68.027 29.3935C68.08 29.5375 68.177 29.6615 68.303 29.7495C68.429 29.8375 68.578 29.8855 68.732 29.8875C69.107 29.8185 69.464 29.6735 69.781 29.4625C70.099 29.2515 70.371 28.9785 70.58 28.6605V28.7165ZM75.643 10.6475C76.125 9.96351 76.648 9.30851 77.209 8.68751C77.34 8.51351 77.508 8.37051 77.701 8.26751C77.893 8.16551 78.106 8.10651 78.323 8.09451C78.537 8.07851 78.749 8.14451 78.915 8.27851C78.987 8.34451 79.045 8.42551 79.084 8.51551C79.122 8.60551 79.142 8.70251 79.141 8.80051C79.093 9.25551 78.871 9.67551 78.521 9.97051C77.946 10.4915 77.327 10.9635 76.673 11.3815L75.53 12.2695C74.896 12.7635 74.19 13.3415 73.415 14.0195L73.146 13.7655C73.894 12.9895 74.684 11.9315 75.643 10.6475Z" fill="#E1A192"/>
<path d="M99.9177 25.9238L99.2837 27.8988C98.6347 29.7608 97.5477 30.7198 96.0107 30.7198C95.6907 30.7598 95.3657 30.7128 95.0707 30.5838C94.7757 30.4548 94.5197 30.2478 94.3327 29.9858C94.1577 29.7018 94.0697 29.3738 94.0787 29.0408C94.1287 28.3168 94.2857 27.6038 94.5437 26.9248L97.1247 19.1818C97.2827 18.7268 97.3737 18.2518 97.3937 17.7708C97.3937 17.2068 97.1957 16.9388 96.7867 16.9388C95.7707 16.9388 94.6007 18.1098 93.3167 20.4648C91.7607 23.4558 90.5037 26.5928 89.5647 29.8308V29.6618L89.4097 30.2678H86.9137L90.2987 19.1108C90.4677 18.6598 90.5637 18.1828 90.5807 17.7008C90.5807 17.1078 90.3267 16.8118 89.8187 16.8118C89.1417 16.8118 88.4077 17.3338 87.5617 18.3918C86.5907 19.7508 85.7897 21.2238 85.1777 22.7788C84.3087 24.7498 83.5817 26.7818 83.0067 28.8578L82.6397 30.2678H80.2697L83.5277 18.6458C83.6227 18.3188 83.6837 17.9828 83.7107 17.6438C83.7107 17.1928 83.5277 16.9668 83.1467 16.9668C82.9267 16.9798 82.7127 17.0438 82.5217 17.1538C82.3307 17.2638 82.1677 17.4178 82.0467 17.6018C81.6037 18.2568 81.2617 18.9748 81.0317 19.7318L80.6787 20.7328H80.1707L80.8477 18.7588C81.4967 16.8968 82.5827 15.9378 84.1197 15.9378C84.3397 15.9078 84.5637 15.9298 84.7727 16.0028C84.9817 16.0748 85.1707 16.1958 85.3247 16.3558C85.4787 16.5148 85.5927 16.7078 85.6577 16.9198C85.7227 17.1318 85.7377 17.3548 85.6997 17.5738C85.6517 18.3118 85.5147 19.0408 85.2907 19.7458L84.4167 23.2158C85.1507 21.1928 86.1827 19.2918 87.4767 17.5738C87.8607 17.0788 88.3497 16.6758 88.9087 16.3928C89.4677 16.1098 90.0817 15.9538 90.7077 15.9378C91.9067 15.9378 92.4987 16.5718 92.4987 17.8418C92.4667 18.5838 92.3397 19.3188 92.1177 20.0278L91.1447 23.6668C91.7357 22.1068 92.4527 20.5968 93.2887 19.1538C93.7997 18.2108 94.4947 17.3808 95.3337 16.7128C95.9967 16.2038 96.8107 15.9308 97.6467 15.9378C98.9157 15.9378 99.5367 16.6148 99.5367 17.9688C99.5157 18.6708 99.3867 19.3648 99.1567 20.0278L96.5327 28.0118C96.4197 28.3448 96.3487 28.6908 96.3217 29.0408C96.3067 29.1298 96.3127 29.2198 96.3407 29.3058C96.3687 29.3908 96.4157 29.4688 96.4787 29.5318C96.5427 29.5958 96.6197 29.6428 96.7057 29.6708C96.7907 29.6978 96.8817 29.7048 96.9707 29.6898C97.1777 29.6718 97.3797 29.6088 97.5607 29.5038C97.7407 29.3988 97.8957 29.2558 98.0137 29.0838C98.4737 28.4238 98.8257 27.6948 99.0577 26.9248L99.4097 25.9238H99.9177Z" fill="#E1A192"/>
<path d="M110.088 21.65C108.339 22.796 106.44 23.698 104.446 24.33C104.253 25.191 104.154 26.071 104.15 26.953C104.15 28.688 104.77 29.563 106.026 29.563C106.904 29.512 107.755 29.236 108.495 28.762C109.236 28.288 109.843 27.631 110.257 26.855L110.695 27.066C110.104 28.074 109.306 28.944 108.353 29.619C107.463 30.304 106.373 30.68 105.25 30.691C104.769 30.719 104.288 30.647 103.836 30.48C103.385 30.312 102.973 30.053 102.627 29.718C101.947 28.941 101.602 27.927 101.668 26.897C101.731 25.281 102.145 23.697 102.88 22.256C103.651 20.581 104.761 19.082 106.138 17.856C107.333 16.709 108.913 16.051 110.568 16.008C111.077 15.995 111.576 16.159 111.978 16.473C112.172 16.634 112.324 16.837 112.425 17.068C112.526 17.298 112.571 17.548 112.557 17.799C112.509 18.599 112.257 19.372 111.825 20.046C111.392 20.721 110.794 21.273 110.088 21.65ZM108.014 17.574C107.211 18.362 106.535 19.271 106.012 20.268C105.386 21.39 104.912 22.59 104.601 23.836C105.907 23.442 107.147 22.857 108.283 22.101C108.938 21.59 109.473 20.94 109.849 20.197C110.217 19.442 110.405 18.612 110.399 17.771C110.418 17.443 110.38 17.113 110.286 16.798C110.264 16.728 110.221 16.668 110.163 16.624C110.105 16.581 110.033 16.558 109.961 16.558C109.207 16.636 108.51 16.999 108.014 17.574Z" fill="#E1A192"/>
<path d="M125.815 16.4169C125.95 16.5569 126.055 16.7229 126.123 16.9049C126.191 17.0869 126.221 17.2809 126.21 17.4749C126.199 17.9129 126.062 18.3389 125.815 18.7019C125.696 18.9039 125.524 19.0689 125.317 19.1809C125.111 19.2929 124.879 19.3469 124.645 19.3369C124.495 19.3509 124.345 19.3309 124.205 19.2769C124.066 19.2229 123.941 19.1369 123.84 19.0259C123.667 18.8109 123.578 18.5409 123.587 18.2649C123.594 17.9619 123.676 17.6669 123.826 17.4039C123.983 17.0929 124.193 16.8109 124.447 16.5719C124.273 16.5729 124.101 16.6069 123.939 16.6709C123.766 16.7489 123.601 16.8439 123.445 16.9529C123.179 17.1689 122.954 17.4319 122.783 17.7289C122.549 18.1449 122.337 18.5739 122.148 19.0119C121.773 19.8289 121.3 20.5959 120.737 21.2969C120.217 21.8819 119.518 22.2789 118.749 22.4259C119.733 22.4389 120.699 22.6859 121.569 23.1449C121.919 23.3459 122.204 23.6389 122.396 23.9929C122.588 24.3459 122.678 24.7459 122.656 25.1479C122.674 25.3869 122.674 25.6279 122.656 25.8669L122.106 28.5899C122.088 28.7679 122.088 28.9469 122.106 29.1259C122.098 29.2039 122.107 29.2839 122.131 29.3589C122.155 29.4339 122.194 29.5039 122.247 29.5629C122.381 29.6619 122.547 29.7079 122.712 29.6899C122.919 29.6709 123.119 29.6039 123.295 29.4939C123.472 29.3829 123.62 29.2329 123.728 29.0549C124.151 28.3929 124.483 27.6759 124.715 26.9249L125.039 25.9239H125.547L124.898 27.8989C124.306 29.7789 123.234 30.7199 121.682 30.7199C121.217 30.7429 120.759 30.5919 120.399 30.2959C120.228 30.1229 120.097 29.9149 120.014 29.6859C119.932 29.4569 119.899 29.2129 119.92 28.9709C119.916 28.6949 119.95 28.4199 120.018 28.1519L120.511 25.8249C120.585 25.4959 120.627 25.1609 120.639 24.8239C120.659 24.5249 120.604 24.2269 120.478 23.9559C120.352 23.6839 120.16 23.4489 119.92 23.2719C119.164 22.8529 118.315 22.6299 117.451 22.6229L115.011 30.2679H112.655L118.029 12.2419C118.102 12.0039 118.145 11.7569 118.156 11.5079C118.163 11.3489 118.128 11.1909 118.053 11.0489C117.979 10.9079 117.868 10.7889 117.733 10.7039C117.29 10.5089 116.806 10.4219 116.322 10.4509L116.478 9.88588C118.17 9.91088 119.844 9.52888 121.358 8.77188L117.409 22.2709C118.132 22.2349 118.837 22.0329 119.468 21.6779C119.948 21.3919 120.357 21.0009 120.667 20.5359C121.006 19.9879 121.308 19.4179 121.569 18.8289C121.763 18.3709 121.989 17.9279 122.247 17.5029C122.437 17.1619 122.697 16.8639 123.008 16.6289C123.482 16.2479 124.066 16.0299 124.673 16.0079C125.092 15.9909 125.502 16.1379 125.815 16.4169Z" fill="#E1A192"/>
<path d="M148.355 26.8547C148.033 27.9887 147.788 29.1437 147.622 30.3107C146.394 30.3107 144.335 30.2397 141.472 30.2397C137.523 30.2397 134.574 30.2397 132.6 30.3107L132.741 29.7747C133.217 29.7537 133.69 29.6827 134.151 29.5627C134.466 29.4437 134.733 29.2257 134.913 28.9427C135.197 28.4797 135.407 27.9747 135.534 27.4467L139.102 14.0047C139.224 13.5817 139.3 13.1467 139.328 12.7077C139.343 12.5537 139.314 12.3987 139.244 12.2617C139.174 12.1237 139.066 12.0097 138.933 11.9317C138.481 11.7677 138.003 11.6867 137.523 11.6917L137.664 11.1417C138.623 11.1417 140.103 11.2267 142.135 11.2267C143.828 11.2267 145.238 11.2267 146.366 11.1417L146.24 11.6917C145.762 11.6997 145.288 11.7717 144.829 11.9037C144.508 12.0167 144.234 12.2357 144.053 12.5237C143.795 12.9927 143.605 13.4967 143.489 14.0187L139.807 27.4467C139.693 27.8817 139.613 28.3257 139.568 28.7727C139.548 28.9227 139.576 29.0757 139.647 29.2097C139.717 29.3437 139.828 29.4517 139.963 29.5207C140.419 29.6587 140.896 29.7167 141.373 29.6897H142.46C143.69 29.7067 144.887 29.2917 145.844 28.5187C147.003 27.4537 147.876 26.1157 148.383 24.6257H148.99C148.735 25.3557 148.523 26.0997 148.355 26.8547Z" fill="#E1A192"/>
<path d="M154.124 17.7993C154.124 17.4323 153.955 17.2493 153.63 17.2493C153.453 17.2593 153.281 17.3103 153.126 17.3983C152.972 17.4863 152.84 17.6093 152.742 17.7573C152.384 18.2593 152.099 18.8103 151.896 19.3933L151.36 20.8033H150.838L151.599 18.7443C151.814 17.9163 152.303 17.1863 152.987 16.6733C153.672 16.1603 154.511 15.8963 155.366 15.9233C155.695 15.8943 156.028 15.9353 156.34 16.0423C156.654 16.1493 156.942 16.3203 157.185 16.5443C157.378 16.7573 157.527 17.0063 157.624 17.2773C157.721 17.5483 157.764 17.8363 157.749 18.1233C157.745 18.6683 157.645 19.2083 157.453 19.7173L154.632 28.0113C154.544 28.2663 154.492 28.5323 154.476 28.8013C154.476 29.1823 154.66 29.3653 155.013 29.3653C155.175 29.3513 155.333 29.3043 155.476 29.2263C155.619 29.1493 155.745 29.0423 155.845 28.9143C156.235 28.4073 156.532 27.8333 156.72 27.2213L157.213 25.9233H157.721L157.016 27.8983C156.832 28.7213 156.366 29.4533 155.699 29.9693C155.031 30.4843 154.205 30.7493 153.363 30.7193C151.726 30.7193 150.894 29.9723 150.894 28.4773C150.918 27.7723 151.056 27.0773 151.303 26.4173L153.955 18.6453C154.041 18.3703 154.098 18.0863 154.124 17.7993ZM155.775 10.0133C156.327 9.57526 157.016 9.34526 157.721 9.36426C158.228 9.35126 158.726 9.51026 159.132 9.81626C159.309 9.96626 159.448 10.1543 159.541 10.3673C159.634 10.5803 159.678 10.8113 159.668 11.0433C159.674 11.3833 159.604 11.7223 159.463 12.0323C159.321 12.3423 159.111 12.6163 158.849 12.8343C158.294 13.3123 157.579 13.5643 156.846 13.5393C156.307 13.5773 155.774 13.4113 155.352 13.0743C155.181 12.9073 155.05 12.7033 154.969 12.4783C154.889 12.2543 154.861 12.0143 154.886 11.7763C154.893 11.4353 154.978 11.0993 155.131 10.7943C155.285 10.4893 155.505 10.2223 155.775 10.0133Z" fill="#E1A192"/>
<path d="M172.08 16.9952C172.702 17.9052 172.999 18.9982 172.926 20.0982C172.894 21.7182 172.539 23.3142 171.882 24.7952C171.235 26.4162 170.222 27.8642 168.92 29.0272C167.717 30.1342 166.14 30.7432 164.505 30.7332C164.019 30.7452 163.536 30.6432 163.095 30.4372C162.704 30.2662 162.378 29.9742 162.164 29.6052C161.613 29.6452 161.071 29.7692 160.556 29.9722C159.992 30.1692 159.343 30.4512 158.624 30.7902L158.215 30.6062C158.453 30.0892 158.642 29.5512 158.778 28.9982L163.687 12.2842C163.761 12.0372 163.799 11.7802 163.8 11.5222C163.809 11.3662 163.775 11.2102 163.703 11.0712C163.631 10.9322 163.524 10.8152 163.391 10.7322C162.947 10.5422 162.463 10.4592 161.981 10.4932L162.135 9.92816C163.29 9.91516 164.442 9.80216 165.577 9.59016C166.541 9.40616 167.485 9.13216 168.398 8.77216L165.225 19.7742C165.721 18.6832 166.415 17.6932 167.27 16.8542C167.878 16.2622 168.692 15.9282 169.541 15.9232C170.018 15.8912 170.497 15.9712 170.938 16.1572C171.378 16.3432 171.77 16.6302 172.08 16.9952ZM166.24 28.1802C167.115 26.8812 167.781 25.4542 168.215 23.9492C168.694 22.4382 168.951 20.8652 168.977 19.2802C169.005 18.7982 168.923 18.3152 168.737 17.8702C168.678 17.7362 168.581 17.6232 168.458 17.5462C168.335 17.4682 168.192 17.4282 168.046 17.4322C167.538 17.4322 166.974 17.8842 166.353 18.8432C165.634 19.9352 165.038 21.1032 164.576 22.3272L162.517 29.4502C162.663 29.6362 162.848 29.7882 163.061 29.8932C163.273 29.9982 163.507 30.0542 163.744 30.0562C164.282 29.9742 164.792 29.7602 165.228 29.4322C165.663 29.1052 166.011 28.6752 166.24 28.1802Z" fill="#E1A192"/>
<path d="M175.055 21.5935C175.705 20.0235 176.739 18.6415 178.06 17.5735C179.4 16.4815 181.085 15.9025 182.813 15.9375C183.406 15.9015 184 15.9845 184.56 16.1835C185.12 16.3825 185.634 16.6915 186.071 17.0945C186.474 17.5415 186.783 18.0665 186.978 18.6355C187.175 19.2045 187.255 19.8075 187.214 20.4085C187.189 22.0075 186.844 23.5855 186.198 25.0495C185.54 26.6225 184.504 28.0085 183.18 29.0835C181.839 30.1735 180.153 30.7485 178.426 30.7055C177.836 30.7445 177.244 30.6645 176.687 30.4675C176.129 30.2715 175.617 29.9635 175.182 29.5625C174.78 29.1115 174.472 28.5855 174.275 28.0135C174.079 27.4425 173.999 26.8375 174.04 26.2345C174.063 24.6345 174.408 23.0565 175.055 21.5935ZM180.486 18.3915C179.611 19.8655 178.937 21.4505 178.483 23.1025C177.969 24.7915 177.694 26.5425 177.665 28.3075C177.631 28.7885 177.708 29.2715 177.891 29.7185C177.949 29.8545 178.047 29.9705 178.174 30.0485C178.3 30.1265 178.448 30.1645 178.596 30.1555C179.259 30.1555 180.006 29.5345 180.768 28.2795C181.645 26.8315 182.319 25.2705 182.771 23.6385C183.286 21.9265 183.557 20.1505 183.575 18.3635C183.601 17.8835 183.529 17.4035 183.363 16.9525C183.307 16.8225 183.211 16.7115 183.09 16.6365C182.97 16.5605 182.828 16.5235 182.687 16.5295C182.009 16.4735 181.289 17.1085 180.486 18.3915Z" fill="#E1A192"/>
<path d="M202.575 25.8533H203.097L202.363 27.8983C202.096 28.7573 201.563 29.5083 200.84 30.0423C200.205 30.4773 199.451 30.7043 198.682 30.6913C198.255 30.7063 197.831 30.6243 197.441 30.4513C197.119 30.3173 196.85 30.0783 196.679 29.7743C196.509 29.4283 196.427 29.0453 196.439 28.6603C196.464 28.0643 196.553 27.4733 196.707 26.8973L197.441 24.0763C196.893 25.4643 196.213 26.7963 195.41 28.0533C194.909 28.8643 194.235 29.5533 193.435 30.0703C192.749 30.4643 191.969 30.6643 191.178 30.6493C190.517 30.7023 189.861 30.5003 189.345 30.0843C189.136 29.8663 188.973 29.6073 188.869 29.3233C188.765 29.0393 188.72 28.7363 188.738 28.4343C188.75 27.7943 188.869 27.1593 189.09 26.5583L191.714 18.5753C191.811 18.3223 191.868 18.0553 191.883 17.7853C191.883 17.4043 191.714 17.2073 191.361 17.2073C191.196 17.2203 191.034 17.2693 190.889 17.3493C190.743 17.4293 190.616 17.5393 190.515 17.6723C190.133 18.1773 189.842 18.7453 189.655 19.3513L189.175 20.6483H188.653L189.331 18.6743C189.519 17.8563 189.984 17.1283 190.647 16.6143C191.31 16.1003 192.131 15.8313 192.969 15.8533C194.606 15.8533 195.438 16.6143 195.438 18.1093C195.412 18.8113 195.283 19.5043 195.057 20.1693L192.617 27.4753C192.476 27.8503 192.394 28.2453 192.377 28.6463C192.377 29.0693 192.546 29.2663 192.885 29.2663C193.435 29.2663 194.07 28.7453 194.803 27.6733C195.692 26.3423 196.443 24.9243 197.046 23.4413C197.822 21.6023 198.486 19.7183 199.034 17.7993L199.43 16.3043C200.751 16.3053 202.069 16.1773 203.365 15.9233L199.965 28.0113C199.878 28.3053 199.826 28.6083 199.811 28.9143C199.803 28.9763 199.811 29.0393 199.831 29.0983C199.853 29.1573 199.887 29.2103 199.932 29.2543C199.977 29.2983 200.031 29.3303 200.091 29.3503C200.151 29.3693 200.214 29.3743 200.276 29.3653C200.455 29.3613 200.631 29.3153 200.79 29.2323C200.949 29.1493 201.087 29.0303 201.193 28.8863C201.553 28.3783 201.829 27.8163 202.011 27.2213L202.575 25.8533Z" fill="#E1A192"/>
<path d="M219.374 25.9239L218.697 27.8989C218.509 28.7139 218.046 29.4399 217.386 29.9529C216.725 30.4669 215.908 30.7379 215.072 30.7199C214.665 30.7599 214.254 30.6999 213.875 30.5449C213.497 30.3899 213.162 30.1449 212.899 29.8309C212.652 29.4549 212.528 29.0109 212.547 28.5619C212.575 27.8279 212.722 27.1039 212.984 26.4179L215.424 19.0969C215.56 18.7249 215.641 18.3359 215.665 17.9409C215.665 17.5169 215.495 17.3059 215.143 17.3059C214.789 17.3059 213.957 17.8559 213.182 18.9699C212.273 20.3409 211.499 21.7959 210.869 23.3149C210.076 25.1519 209.398 27.0359 208.838 28.9569L208.485 30.3669H204.663L207.892 18.6179C207.995 18.3369 208.052 18.0419 208.061 17.7429C208.061 17.4189 207.907 17.2489 207.596 17.2489C207.42 17.2569 207.247 17.3039 207.091 17.3869C206.934 17.4699 206.799 17.5869 206.693 17.7289C206.33 18.2369 206.05 18.7979 205.861 19.3929L205.353 20.8039H204.831L205.565 18.7449C205.812 17.9059 206.303 17.1589 206.976 16.6009C207.592 16.1609 208.334 15.9329 209.091 15.9519C210.643 15.9519 211.418 16.6989 211.418 18.1799C211.416 18.7089 211.345 19.2349 211.207 19.7459L210.361 23.0319C210.937 21.5589 211.65 20.1419 212.49 18.8009C213.012 17.9439 213.715 17.2119 214.55 16.6569C215.246 16.2329 216.048 16.0129 216.863 16.0219C218.5 16.0219 219.303 16.7559 219.303 18.1939C219.286 18.8479 219.167 19.4949 218.951 20.1129L216.355 28.0119C216.261 28.2649 216.209 28.5309 216.2 28.8009C216.2 29.1819 216.369 29.3659 216.708 29.3659C216.875 29.3539 217.037 29.3069 217.185 29.2299C217.333 29.1519 217.464 29.0449 217.569 28.9139C217.947 28.4039 218.234 27.8309 218.415 27.2219L218.909 25.9239H219.374ZM220.587 8.09489L220.728 8.47589C219.407 9.06689 218.173 9.83589 217.061 10.7609C215.979 11.6299 215.029 12.6519 214.24 13.7939H213.746C213.556 12.6869 213.184 11.6189 212.646 10.6339C212.11 9.76589 211.387 9.02889 210.53 8.47589L210.629 8.09489C211.594 8.28789 212.538 8.57089 213.45 8.94189C214.22 9.26189 214.961 9.64889 215.665 10.0979C217.224 9.24689 218.876 8.57589 220.587 8.09489Z" fill="#E1A192"/>
<path d="M19.4344 16.0643H19.3494L12.0294 23.2153C13.3924 22.3413 14.9664 21.8543 16.5854 21.8053C17.0624 21.7893 17.5384 21.8513 17.9954 21.9883L18.5604 22.1723L19.6464 18.0953C19.7864 17.6763 19.8674 17.2393 19.8854 16.7973C19.8974 16.6433 19.8604 16.4893 19.7794 16.3583C19.6984 16.2263 19.5774 16.1233 19.4344 16.0643Z" fill="#E1A192"/>
<path d="M38.2788 15.909C37.0618 14.438 36.4108 12.579 36.4448 10.67C36.4788 8.76098 37.1938 6.92698 38.4618 5.49898C37.8988 5.60098 37.3278 5.65298 36.7558 5.65498C34.9958 5.65298 33.2668 5.18998 31.7428 4.31098C30.2178 3.43298 28.9508 2.16898 28.0668 0.64698C25.3118 1.59198 22.4178 2.06898 19.5048 2.05798C16.5928 2.06898 13.6988 1.59198 10.9428 0.64698C10.0628 2.16898 8.79779 3.43298 7.27579 4.31098C5.75279 5.18998 4.02679 5.65398 2.26879 5.65498C1.69179 5.65298 1.11579 5.60098 0.547791 5.49898C1.85079 6.96398 2.56879 8.85698 2.56479 10.817C2.56979 12.675 1.92679 14.476 0.744789 15.909C0.744789 15.909 -1.79421 33.089 19.5048 43.428C40.8038 33.089 38.3208 15.965 38.3208 15.965L38.2788 15.909ZM29.0808 6.98798C29.0008 7.13398 28.8908 7.26098 28.7578 7.36098C28.3358 7.71298 27.8588 7.99398 27.3478 8.19398L20.0128 15.359H24.8928L24.7798 15.824C24.3038 15.843 23.8308 15.914 23.3698 16.036C23.0568 16.149 22.7888 16.362 22.6078 16.642C22.3668 17.088 22.1818 17.562 22.0578 18.053L20.7318 22.99H20.9018C21.3588 23.126 21.8348 23.188 22.3118 23.173C22.5648 23.197 22.8208 23.17 23.0638 23.093C23.3058 23.015 23.5298 22.889 23.7228 22.722C23.8778 22.548 23.9978 22.345 24.0758 22.125C24.1528 21.905 24.1868 21.671 24.1738 21.438C24.1738 20.394 23.5388 19.76 22.2838 19.506L22.3828 18.984C23.1198 19.1 23.8098 19.423 24.3708 19.915C24.6458 20.195 24.8588 20.528 24.9978 20.895C25.1358 21.262 25.1968 21.653 25.1748 22.045C25.1918 22.47 25.1248 22.895 24.9778 23.294C24.8298 23.694 24.6048 24.06 24.3148 24.372C24.0128 24.679 23.6498 24.92 23.2488 25.078C22.8478 25.236 22.4178 25.308 21.9878 25.289C21.4108 25.355 20.8268 25.268 20.2948 25.035L20.1818 24.964L18.5178 31.171C18.3758 31.59 18.2958 32.027 18.2778 32.468C18.2578 32.615 18.2858 32.764 18.3568 32.893C18.4278 33.022 18.5388 33.126 18.6728 33.188C19.1258 33.344 19.6058 33.406 20.0828 33.371H22.0018C22.8998 33.41 23.7948 33.251 24.6248 32.906C25.3088 32.579 25.8828 32.059 26.2758 31.41C26.8528 30.473 27.3258 29.475 27.6858 28.434H28.2928C28.1798 28.773 27.9538 29.492 27.6438 30.592C27.3348 31.705 27.0948 32.836 26.9238 33.978C25.7248 33.978 23.7228 33.893 20.8868 33.893C17.5118 33.893 14.9728 33.921 13.2708 33.978L13.3978 33.442C13.8748 33.438 14.3498 33.367 14.8078 33.23C15.1208 33.122 15.3848 32.907 15.5558 32.624C15.8108 32.183 16.0008 31.708 16.1198 31.213L18.1788 23.512C17.8688 23.3 17.5728 23.103 17.3188 22.962C16.8838 22.731 16.3998 22.61 15.9078 22.609C15.2908 22.6 14.6768 22.69 14.0888 22.877C13.3188 23.122 12.5648 23.414 11.8318 23.751C11.5528 24.173 11.2108 24.549 10.8158 24.866C10.5568 25.097 10.2308 25.241 9.88479 25.275C9.75079 25.283 9.61879 25.237 9.51879 25.148C9.46179 25.112 9.41679 25.062 9.38679 25.002C9.35679 24.942 9.34379 24.876 9.34879 24.809C9.37079 24.648 9.42579 24.493 9.51079 24.355C9.59579 24.216 9.70879 24.097 9.84279 24.005C10.3098 23.652 10.8348 23.385 11.3948 23.215L18.7998 15.937H14.5678L14.7518 15.401H19.3778L26.7268 8.17898C25.3598 9.04498 23.7878 9.53198 22.1708 9.58998C21.6938 9.60298 21.2178 9.54098 20.7608 9.40698C20.3658 9.27998 19.8718 9.09598 19.3498 8.85598C18.8278 8.61698 18.2498 8.41898 17.8548 8.29198C17.3958 8.16298 16.9208 8.10098 16.4438 8.10898C16.1898 8.08198 15.9318 8.10998 15.6888 8.18998C15.4458 8.26998 15.2218 8.40098 15.0338 8.57398C14.8728 8.74498 14.7478 8.94698 14.6678 9.16798C14.5878 9.38898 14.5538 9.62398 14.5678 9.85798C14.5678 10.888 15.2028 11.536 16.4728 11.776L16.3738 12.312C15.6278 12.2 14.9318 11.872 14.3708 11.367C14.0908 11.094 13.8748 10.763 13.7358 10.398C13.5968 10.032 13.5388 9.64098 13.5668 9.25098C13.5508 8.82298 13.6188 8.39498 13.7698 7.99298C13.9198 7.59098 14.1478 7.22298 14.4408 6.90998C14.7438 6.60398 15.1078 6.36598 15.5088 6.21098C15.9098 6.05498 16.3388 5.98598 16.7688 6.00698C17.3298 5.95198 17.8948 6.04898 18.4048 6.28898C18.9478 6.60098 19.4618 6.95998 19.9418 7.36098C20.4078 7.75398 20.9088 8.10298 21.4378 8.40498C21.8738 8.62998 22.3568 8.74998 22.8478 8.75798C23.4658 8.76198 24.0798 8.66698 24.6678 8.47598C25.3818 8.21998 26.0798 7.91898 26.7548 7.57298C27.0298 7.14798 27.3728 6.77198 27.7708 6.45898C28.0258 6.21798 28.3528 6.06898 28.7018 6.03498C28.7688 6.03098 28.8368 6.04098 28.9008 6.06498C28.9638 6.08998 29.0208 6.12798 29.0678 6.17698C29.1218 6.21398 29.1648 6.26498 29.1918 6.32498C29.2188 6.38398 29.2298 6.44998 29.2238 6.51498C29.2098 6.68098 29.1608 6.84198 29.0808 6.98798Z" fill="#E1A192"/>
</svg>
