<svg viewBox="0 0 91 35" fill="none" xmlns="http://www.w3.org/2000/svg">
<path d="M12.4059 18.0671C11.7069 18.5951 11.2879 19.4451 10.4529 19.7951C9.77787 20.1171 9.04187 20.2381 8.31987 20.4311C7.33087 20.7311 6.40086 21.2131 5.59986 21.8621C5.27186 22.1431 3.62987 23.4551 4.70587 23.6911C5.96187 23.4831 7.19986 23.1451 8.48786 23.1461C11.1349 23.2101 13.8339 24.1971 16.4509 23.3231C17.6209 22.9241 18.7409 22.2681 19.5469 21.3181C20.2479 20.4261 20.7699 19.3901 21.5679 18.5751C22.9349 18.1831 24.4149 18.4251 25.8369 18.3771C29.2889 19.6331 32.8599 20.5021 36.4879 21.1061C34.8089 21.5421 33.0569 21.9641 31.7019 23.0951C30.6899 22.8361 29.6699 23.3501 28.6389 23.4221C25.0979 23.3911 20.7769 23.8031 18.8709 27.2651C18.3429 28.2711 18.0109 29.3561 17.2219 30.2251C16.6299 30.9191 15.8979 31.4971 15.2129 32.1131C14.7509 32.5211 14.3089 32.9481 13.8549 33.3621C13.6289 33.5691 13.2299 33.9121 13.5109 34.2251C13.6589 34.3661 13.8509 34.3131 14.0199 34.2561C14.7819 33.9881 15.5319 33.6891 16.2989 33.4321C17.5259 33.0331 18.7799 32.7021 20.0669 32.5591C21.3769 32.4931 22.7989 32.7171 23.9679 31.9761C25.1269 31.3901 25.7799 30.2431 26.6079 29.3001C27.6739 28.6071 29.0849 28.6001 30.0229 27.6591C34.0249 24.0871 28.1139 23.7151 37.9319 21.3621C37.9509 21.3591 37.9629 21.3471 37.9799 21.3411C40.1459 21.6571 42.3289 21.8841 44.5149 22.0471C44.9439 22.1321 45.3819 22.1751 45.8299 22.1591C45.8419 22.1551 45.8499 22.1461 45.8609 22.1411C46.5889 22.1861 47.3169 22.2241 48.0449 22.2581C48.1989 22.2651 48.3319 22.1531 48.3519 22.0011C48.3519 21.9991 48.3529 21.9971 48.3529 21.9951C48.3749 21.8221 48.2479 21.6681 48.0749 21.6601C46.9359 21.6081 45.7959 21.5441 44.6579 21.4621C44.4149 21.4071 44.1739 21.3411 43.9249 21.2581C42.1289 20.7461 40.9329 19.2801 39.9539 17.7721C39.5929 15.3601 40.6869 12.4281 38.8909 10.4071C37.2679 8.33112 34.4349 8.23712 32.3149 6.89012C31.7679 6.65412 31.2119 6.20812 30.5929 6.25112C30.0259 6.47412 30.5259 7.12812 30.7189 7.46812C31.3969 8.55212 32.2229 9.50712 32.8239 10.6411C33.4599 12.0461 33.6329 13.6371 34.3959 14.9951C35.1669 16.3981 36.5049 17.5491 38.0549 17.9841C38.4329 18.0801 38.8239 18.0841 39.2089 18.1121C39.3329 18.1251 39.5019 18.1221 39.5829 18.2441C40.2769 19.4741 41.3049 20.5651 42.5309 21.2831C40.5419 21.0991 38.5579 20.8491 36.5919 20.5221C36.5409 20.4101 36.4209 20.3361 36.2919 20.3491C34.8899 20.0521 33.6709 19.1351 32.7179 18.0851C32.8029 17.9851 32.7989 17.8361 32.7329 17.7181C32.1069 16.2191 32.0099 14.5331 31.5899 12.9651C30.5359 7.80612 27.9929 10.3311 25.7089 5.33712C24.9859 3.94712 24.6059 5.02812 24.6719 5.98612C24.4929 11.0051 26.6489 16.9831 31.9809 18.3421C32.5149 18.5391 32.8059 19.1191 33.2549 19.4491C33.3679 19.5601 33.7219 19.8111 34.1569 20.0771C30.4429 19.3231 26.8039 18.2521 23.3089 16.7231C22.0659 15.8511 21.2199 14.4611 20.9659 12.9631C21.9289 11.9781 23.2229 11.3001 22.8279 9.67412C22.7529 9.06212 22.5179 8.40512 22.4649 7.77612C22.4579 7.10312 22.6829 6.39612 22.7359 5.70912C22.8819 4.19012 21.2129 3.41912 21.1039 1.95412C21.0319 1.46112 21.0539 1.02012 21.0579 0.508118C21.0539 0.357118 21.0129 0.161119 20.8379 0.0551186C20.4019 -0.147881 20.0709 0.394119 19.8019 0.665119C18.8989 1.66912 18.3069 2.89312 17.8199 4.14212C16.6079 7.03912 17.2169 11.1251 20.1689 12.7061C20.4629 12.8651 20.3809 13.2781 20.4979 13.5881C20.6559 14.3271 21.0199 15.0051 21.4149 15.6421C21.4639 15.7091 21.5519 15.8251 21.6649 15.9641C21.6059 15.9351 21.5459 15.9101 21.4849 15.8801C18.9689 14.6771 16.4819 13.3071 14.3569 11.4811C14.4469 11.3711 14.4569 11.2001 14.3529 11.0961C13.9509 10.6871 13.6089 10.2561 13.3079 9.76212C10.0719 3.27512 7.64786 3.52112 1.40286 1.36312C1.10786 1.28012 0.847865 1.60512 1.00686 1.86812C1.30186 2.32312 1.65186 2.74512 1.94786 3.20412C5.00086 7.88112 6.21786 11.2341 12.5079 11.5961C12.9409 11.6561 13.3249 11.7281 13.7509 11.8861C13.8229 11.9431 13.9069 11.9621 13.9869 11.9591C15.2909 13.3061 19.8219 15.7871 20.6329 16.1321C21.8189 16.7341 23.0249 17.2741 24.2449 17.7651C23.4979 17.7591 22.7509 17.7681 22.0089 17.8591C18.8949 17.1801 15.2709 16.0831 12.4059 18.0671Z" fill="#F7E6E1"/>
<path d="M78.8168 18.0671C79.5158 18.5951 79.9348 19.4451 80.7698 19.7951C81.4448 20.1171 82.1808 20.2381 82.9028 20.4311C83.8918 20.7311 84.8218 21.2131 85.6228 21.8621C85.9508 22.1431 87.5928 23.4551 86.5168 23.6911C85.2608 23.4831 84.0228 23.1451 82.7348 23.1461C80.0878 23.2101 77.3888 24.1971 74.7718 23.3231C73.6018 22.9241 72.4818 22.2681 71.6758 21.3181C70.9748 20.4261 70.4528 19.3901 69.6548 18.5751C68.2878 18.1831 66.8078 18.4251 65.3858 18.3771C61.9338 19.6331 58.3628 20.5021 54.7348 21.1061C56.4138 21.5421 58.1658 21.9641 59.5208 23.0951C60.5328 22.8361 61.5528 23.3501 62.5838 23.4221C66.1248 23.3911 70.4458 23.8031 72.3508 27.2651C72.8798 28.2711 73.2118 29.3561 74.0008 30.2251C74.5928 30.9191 75.3248 31.4971 76.0098 32.1131C76.4718 32.5211 76.9138 32.9481 77.3678 33.3621C77.5938 33.5691 77.9928 33.9121 77.7118 34.2251C77.5638 34.3661 77.3708 34.3131 77.2028 34.2561C76.4408 33.9881 75.6908 33.6891 74.9238 33.4321C73.6968 33.0331 72.4428 32.7021 71.1558 32.5591C69.8458 32.4931 68.4238 32.7171 67.2548 31.9761C66.0958 31.3901 65.4428 30.2431 64.6138 29.3001C63.5488 28.6071 62.1378 28.6001 61.1998 27.6591C57.1978 24.0871 63.1088 23.7151 53.2908 21.3621C53.2718 21.3591 53.2598 21.3471 53.2428 21.3411C51.0768 21.6571 48.8938 21.8841 46.7078 22.0471C46.2788 22.1321 45.8408 22.1751 45.3928 22.1591C45.3808 22.1551 45.3728 22.1461 45.3618 22.1411C44.6338 22.1861 43.9058 22.2241 43.1768 22.2581C43.0238 22.2651 42.8908 22.1531 42.8708 22.0011C42.8708 21.9991 42.8698 21.9971 42.8698 21.9951C42.8468 21.8221 42.9748 21.6681 43.1478 21.6601C44.2868 21.6081 45.4268 21.5441 46.5648 21.4621C46.8078 21.4071 47.0488 21.3411 47.2978 21.2581C49.0938 20.7461 50.2898 19.2801 51.2688 17.7721C51.6298 15.3601 50.5358 12.4281 52.3318 10.4071C53.9548 8.33112 56.7878 8.23712 58.9078 6.89012C59.4548 6.65412 60.0108 6.20812 60.6298 6.25112C61.1968 6.47412 60.6968 7.12812 60.5038 7.46812C59.8258 8.55212 58.9998 9.50712 58.3988 10.6411C57.7628 12.0461 57.5898 13.6371 56.8268 14.9951C56.0558 16.3981 54.7178 17.5491 53.1678 17.9841C52.7898 18.0801 52.3988 18.0841 52.0138 18.1121C51.8898 18.1251 51.7208 18.1221 51.6398 18.2441C50.9458 19.4741 49.9178 20.5651 48.6918 21.2831C50.6808 21.0991 52.6648 20.8491 54.6308 20.5221C54.6808 20.4101 54.8018 20.3361 54.9308 20.3491C56.3328 20.0521 57.5518 19.1351 58.5048 18.0851C58.4198 17.9851 58.4238 17.8361 58.4898 17.7181C59.1158 16.2191 59.2128 14.5331 59.6328 12.9651C60.6868 7.80612 63.2288 10.3311 65.5138 5.33712C66.2368 3.94712 66.6168 5.02812 66.5508 5.98612C66.7298 11.0051 64.5738 16.9831 59.2418 18.3421C58.7078 18.5391 58.4168 19.1191 57.9678 19.4491C57.8548 19.5601 57.5008 19.8111 57.0658 20.0771C60.7798 19.3231 64.4188 18.2521 67.9138 16.7231C69.1568 15.8511 70.0028 14.4611 70.2568 12.9631C69.2938 11.9781 67.9998 11.3001 68.3948 9.67412C68.4698 9.06212 68.7048 8.40512 68.7578 7.77612C68.7648 7.10312 68.5388 6.39612 68.4868 5.70912C68.3408 4.19012 70.0098 3.41912 70.1188 1.95412C70.1898 1.46112 70.1688 1.02012 70.1648 0.508118C70.1688 0.357118 70.2098 0.161119 70.3848 0.0551186C70.8208 -0.147881 71.1518 0.394119 71.4208 0.665119C72.3238 1.66912 72.9158 2.89312 73.4028 4.14212C74.6148 7.03912 74.0058 11.1251 71.0538 12.7061C70.7598 12.8651 70.8418 13.2781 70.7248 13.5881C70.5668 14.3271 70.2028 15.0051 69.8078 15.6421C69.7588 15.7091 69.6708 15.8251 69.5578 15.9641C69.6168 15.9351 69.6768 15.9101 69.7378 15.8801C72.2538 14.6771 74.7408 13.3071 76.8658 11.4811C76.7758 11.3711 76.7658 11.2001 76.8698 11.0961C77.2718 10.6871 77.6138 10.2561 77.9148 9.76212C81.1508 3.27512 83.5748 3.52112 89.8198 1.36312C90.1148 1.28012 90.3748 1.60512 90.2158 1.86812C89.9208 2.32312 89.5718 2.74512 89.2748 3.20412C86.2218 7.88112 85.0048 11.2341 78.7148 11.5961C78.2818 11.6561 77.8978 11.7281 77.4718 11.8861C77.3998 11.9431 77.3158 11.9621 77.2358 11.9591C75.9318 13.3061 71.4008 15.7871 70.5898 16.1321C69.4038 16.7341 68.1978 17.2741 66.9778 17.7651C67.7248 17.7591 68.4718 17.7681 69.2138 17.8591C72.3278 17.1801 75.9518 16.0831 78.8168 18.0671Z" fill="#F7E6E1"/>
</svg>
