<svg viewBox="0 0 156 31" fill="none" xmlns="http://www.w3.org/2000/svg">
<path d="M47.9161 8.36335C47.9001 8.47735 47.8611 8.58836 47.8011 8.68736C47.7421 8.78636 47.6621 8.87135 47.5681 8.93935C47.2421 9.19735 46.8771 9.40235 46.4861 9.54535L41.2031 14.7284H44.1031L43.9541 15.1154H40.8161L35.4241 20.4184C36.4151 19.7994 37.5531 19.4564 38.7211 19.4254C39.0561 19.4234 39.3901 19.4664 39.7141 19.5544C40.0721 19.6714 40.4231 19.8064 40.7671 19.9614C41.1941 20.1404 41.5511 20.2694 41.8391 20.3584C42.1611 20.4554 42.4961 20.5024 42.8321 20.4974C43.0121 20.5144 43.1931 20.4934 43.3651 20.4354C43.5361 20.3774 43.6931 20.2834 43.8251 20.1604C43.9431 20.0384 44.0331 19.8934 44.0921 19.7344C44.1501 19.5754 44.1741 19.4054 44.1631 19.2364C44.1631 18.4814 43.7061 18.0254 42.7921 17.8464L42.8621 17.4594C43.3961 17.5414 43.8961 17.7754 44.3021 18.1344C44.5041 18.3344 44.6601 18.5744 44.7621 18.8404C44.8631 19.1054 44.9061 19.3904 44.8871 19.6734C44.9001 19.9834 44.8501 20.2924 44.7411 20.5824C44.6321 20.8724 44.4651 21.1374 44.2521 21.3614C43.8831 21.7004 43.4201 21.9204 42.9231 21.9914C42.4271 22.0624 41.9211 21.9814 41.4721 21.7584C41.0811 21.5384 40.7121 21.2824 40.3691 20.9944C40.0301 20.7084 39.6641 20.4564 39.2771 20.2394C38.9481 20.0614 38.5791 19.9724 38.2051 19.9814C37.7601 19.9784 37.3181 20.0454 36.8941 20.1794C36.3781 20.3664 35.8731 20.5854 35.3851 20.8354C35.1811 21.1384 34.9341 21.4094 34.6501 21.6394C34.4621 21.8104 34.2261 21.9184 33.9751 21.9474C33.9251 21.9524 33.8761 21.9454 33.8291 21.9284C33.7831 21.9114 33.7411 21.8834 33.7061 21.8484C33.6661 21.8214 33.6331 21.7844 33.6131 21.7404C33.5921 21.6964 33.5831 21.6484 33.5871 21.5994C33.6031 21.4844 33.6431 21.3734 33.7051 21.2744C33.7661 21.1744 33.8481 21.0894 33.9451 21.0244C34.2661 20.7584 34.6331 20.5534 35.0271 20.4184L40.3791 15.1554H37.2311L37.3711 14.7284H40.7071L46.0291 9.50535C45.0381 10.1224 43.9001 10.4644 42.7331 10.4984C42.3961 10.5034 42.0621 10.4564 41.7401 10.3594C41.3811 10.2484 41.0301 10.1154 40.6871 9.96235C40.2501 9.78335 39.8931 9.64436 39.6051 9.55536C39.2821 9.46136 38.9471 9.41735 38.6121 9.42535C38.4401 9.41635 38.2681 9.44136 38.1061 9.49936C37.9441 9.55736 37.7951 9.64736 37.6681 9.76336C37.5541 9.88736 37.4671 10.0334 37.4101 10.1914C37.3541 10.3504 37.3301 10.5184 37.3411 10.6874C37.3411 11.4314 37.7981 11.8984 38.7111 12.0774L38.6321 12.4544C38.0961 12.3744 37.5961 12.1394 37.1921 11.7794C37.0091 11.5794 36.8681 11.3444 36.7791 11.0884C36.6911 10.8314 36.6551 10.5604 36.6751 10.2894C36.6631 9.98136 36.7111 9.67236 36.8191 9.38336C36.9261 9.09336 37.0901 8.82735 37.3011 8.60135C37.5181 8.37835 37.7791 8.20336 38.0691 8.08836C38.3581 7.97336 38.6681 7.92235 38.9791 7.93635C39.3651 7.92935 39.7471 8.01836 40.0911 8.19436C40.4791 8.42236 40.8481 8.68135 41.1941 8.96935C41.5171 9.26435 41.8651 9.53036 42.2361 9.76336C42.5631 9.93736 42.9281 10.0254 43.2991 10.0214C43.7501 10.0064 44.1961 9.91936 44.6191 9.76336C45.1321 9.57236 45.6331 9.35036 46.1191 9.09836C46.3251 8.79936 46.5721 8.53236 46.8541 8.30336C47.0421 8.12836 47.2831 8.02036 47.5391 7.99636C47.5881 7.99336 47.6371 8.00035 47.6831 8.01735C47.7291 8.03435 47.7711 8.06136 47.8071 8.09536C47.8481 8.12536 47.8801 8.16635 47.8991 8.21435C47.9181 8.26135 47.9241 8.31335 47.9161 8.36335Z" fill="#BB2C27"/>
<path d="M55.1052 18.6009H55.4722L54.9962 20.0009C54.8112 20.5859 54.4672 21.1089 54.0032 21.5099C53.6632 21.8039 53.2312 21.9689 52.7812 21.9769C52.5662 21.9849 52.3512 21.9409 52.1562 21.8479C51.9812 21.7689 51.8332 21.6419 51.7292 21.4809C51.6142 21.2779 51.5562 21.0479 51.5602 20.8149C51.5632 20.5129 51.6072 20.2129 51.6892 19.9219C51.7792 19.5939 51.8382 19.3759 51.8682 19.2859L52.2062 17.9159C51.7782 19.0519 51.1492 20.1009 50.3492 21.0139C50.1042 21.3079 49.8022 21.5479 49.4602 21.7189C49.1182 21.8899 48.7442 21.9879 48.3632 22.0069C48.1062 22.0229 47.8502 21.9739 47.6172 21.8649C47.3852 21.7549 47.1832 21.5889 47.0322 21.3809C46.7132 20.8789 46.5632 20.2869 46.6052 19.6929C46.6442 18.4979 46.9252 17.3219 47.4292 16.2379C47.9352 15.0249 48.6662 13.9199 49.5842 12.9809C49.9162 12.5879 50.3232 12.2669 50.7822 12.0369C51.2422 11.8069 51.7432 11.6719 52.2552 11.6399C52.4162 11.6359 52.5762 11.6689 52.7222 11.7359C52.8692 11.8029 52.9972 11.9029 53.0992 12.0269C53.3352 12.3319 53.4672 12.7049 53.4772 13.0899L53.7842 11.9079C54.3802 11.8949 54.9702 11.8039 55.5422 11.6399L53.1592 20.0709C53.1592 20.1199 53.1592 20.2199 53.0792 20.3679C53.0422 20.5009 53.0222 20.6379 53.0202 20.7759C53.0202 21.0929 53.1592 21.2519 53.4372 21.2519C54.0032 21.2519 54.4892 20.6069 54.9072 19.2659L55.1052 18.6009ZM50.2302 20.5869C50.8062 19.9229 51.2972 19.1889 51.6892 18.4019C52.1742 17.4729 52.5662 16.4989 52.8612 15.4929L53.1992 14.1419C53.2102 14.0039 53.2102 13.8639 53.1992 13.7249C53.2232 13.2969 53.1272 12.8699 52.9212 12.4939C52.8472 12.3559 52.7362 12.2409 52.6022 12.1619C52.4672 12.0829 52.3122 12.0439 52.1562 12.0469C51.6002 12.0469 51.0242 12.4639 50.4182 13.3079C49.7532 14.2689 49.2342 15.3229 48.8792 16.4359C48.4852 17.5639 48.2772 18.7469 48.2632 19.9419C48.2362 20.3229 48.2942 20.7069 48.4322 21.0639C48.4702 21.1649 48.5382 21.2519 48.6272 21.3139C48.7152 21.3759 48.8202 21.4099 48.9292 21.4109C49.1932 21.3619 49.4442 21.2609 49.6682 21.1119C49.8912 20.9639 50.0822 20.7719 50.2302 20.5469V20.5869ZM53.7942 7.86692C54.1342 7.38492 54.5022 6.92392 54.8972 6.48692C54.9892 6.36392 55.1072 6.26292 55.2432 6.19092C55.3782 6.11892 55.5282 6.07792 55.6812 6.06992C55.8312 6.05792 55.9812 6.10392 56.0982 6.19892C56.1492 6.24492 56.1892 6.30192 56.2162 6.36592C56.2432 6.42892 56.2572 6.49692 56.2572 6.56592C56.2232 6.88692 56.0672 7.18192 55.8202 7.38992C55.4152 7.75692 54.9802 8.08892 54.5192 8.38292L53.7152 9.00892C53.2682 9.35592 52.7722 9.76292 52.2262 10.2399L52.0372 10.0609C52.5632 9.51492 53.1192 8.76992 53.7942 7.86692Z" fill="#BB2C27"/>
<path d="M70.8835 18.6208L70.4365 20.0108C69.9805 21.3218 69.2155 21.9968 68.1335 21.9968C67.9075 22.0248 67.6795 21.9918 67.4715 21.9008C67.2635 21.8108 67.0835 21.6648 66.9515 21.4808C66.8285 21.2808 66.7665 21.0498 66.7725 20.8148C66.8085 20.3058 66.9185 19.8038 67.1005 19.3258L68.9175 13.8748C69.0285 13.5548 69.0925 13.2198 69.1065 12.8818C69.1065 12.4838 68.9675 12.2958 68.6795 12.2958C67.9645 12.2958 67.1405 13.1198 66.2365 14.7778C65.1405 16.8838 64.2565 19.0918 63.5955 21.3718V21.2518L63.4855 21.6788H61.7285L64.1115 13.8248C64.2315 13.5068 64.2985 13.1708 64.3105 12.8318C64.3105 12.4148 64.1315 12.2058 63.7745 12.2058C63.2975 12.2058 62.7805 12.5738 62.1855 13.3178C61.5015 14.2748 60.9375 15.3118 60.5065 16.4068C59.8945 17.7938 59.3835 19.2248 58.9775 20.6858L58.7195 21.6788H57.0515L59.3455 13.4968C59.4115 13.2668 59.4555 13.0308 59.4745 12.7918C59.4745 12.4738 59.3455 12.3158 59.0765 12.3158C58.9225 12.3238 58.7715 12.3688 58.6365 12.4468C58.5025 12.5238 58.3875 12.6328 58.3025 12.7618C57.9905 13.2238 57.7495 13.7288 57.5875 14.2618L57.3395 14.9668H56.9825L57.4585 13.5768C57.9155 12.2658 58.6805 11.5908 59.7625 11.5908C59.9165 11.5698 60.0745 11.5848 60.2215 11.6368C60.3685 11.6878 60.5015 11.7728 60.6105 11.8848C60.7185 11.9968 60.7985 12.1328 60.8445 12.2818C60.8905 12.4308 60.9005 12.5888 60.8745 12.7428C60.8405 13.2618 60.7435 13.7748 60.5865 14.2718L59.9705 16.7138C60.4875 15.2908 61.2135 13.9518 62.1255 12.7428C62.3955 12.3938 62.7405 12.1098 63.1335 11.9108C63.5265 11.7118 63.9585 11.6018 64.3995 11.5908C65.2435 11.5908 65.6605 12.0368 65.6605 12.9308C65.6385 13.4538 65.5485 13.9708 65.3925 14.4698L64.7075 17.0318C65.1235 15.9338 65.6275 14.8708 66.2165 13.8548C66.5765 13.1908 67.0665 12.6068 67.6565 12.1368C68.1235 11.7778 68.6965 11.5858 69.2845 11.5908C70.1785 11.5908 70.6155 12.0668 70.6155 13.0208C70.6005 13.5148 70.5095 14.0028 70.3475 14.4698L68.5005 20.0908C68.4205 20.3248 68.3715 20.5688 68.3515 20.8148C68.3415 20.8778 68.3455 20.9418 68.3655 21.0018C68.3845 21.0618 68.4175 21.1168 68.4625 21.1608C68.5075 21.2058 68.5615 21.2388 68.6215 21.2588C68.6825 21.2778 68.7465 21.2828 68.8085 21.2718C68.9545 21.2598 69.0965 21.2148 69.2235 21.1408C69.3505 21.0678 69.4605 20.9658 69.5425 20.8448C69.8665 20.3808 70.1145 19.8678 70.2775 19.3258L70.5265 18.6208H70.8835Z" fill="#BB2C27"/>
<path d="M78.043 15.6122C76.811 16.4192 75.475 17.0542 74.071 17.4992C73.935 18.1052 73.866 18.7242 73.863 19.3462C73.863 20.5672 74.299 21.1832 75.183 21.1832C75.801 21.1472 76.4 20.9522 76.922 20.6192C77.444 20.2852 77.871 19.8222 78.162 19.2762L78.47 19.4252C78.054 20.1342 77.493 20.7472 76.822 21.2222C76.195 21.7042 75.428 21.9692 74.637 21.9772C74.298 21.9972 73.96 21.9462 73.642 21.8282C73.324 21.7102 73.034 21.5272 72.79 21.2922C72.312 20.7452 72.069 20.0312 72.115 19.3062C72.16 18.1682 72.451 17.0532 72.969 16.0392C73.511 14.8592 74.293 13.8042 75.263 12.9412C76.103 12.1342 77.216 11.6702 78.381 11.6402C78.74 11.6312 79.091 11.7472 79.374 11.9682C79.51 12.0812 79.617 12.2242 79.688 12.3862C79.759 12.5482 79.791 12.7252 79.781 12.9012C79.747 13.4642 79.57 14.0092 79.266 14.4832C78.961 14.9582 78.54 15.3462 78.043 15.6122ZM76.583 12.7422C76.017 13.2972 75.541 13.9372 75.174 14.6392C74.733 15.4292 74.399 16.2732 74.181 17.1512C75.1 16.8742 75.973 16.4622 76.772 15.9302C77.234 15.5702 77.61 15.1122 77.874 14.5892C78.134 14.0582 78.266 13.4732 78.262 12.8812C78.275 12.6502 78.249 12.4182 78.182 12.1962C78.167 12.1472 78.137 12.1042 78.096 12.0742C78.055 12.0442 78.005 12.0272 77.954 12.0272C77.423 12.0822 76.932 12.3382 76.583 12.7422Z" fill="#BB2C27"/>
<path d="M89.1148 11.9281C89.2098 12.0261 89.2838 12.1431 89.3318 12.2711C89.3798 12.3991 89.4008 12.5361 89.3928 12.6731C89.3848 12.9811 89.2888 13.2811 89.1148 13.5371C89.0308 13.6791 88.9098 13.7951 88.7648 13.8741C88.6198 13.9531 88.4558 13.9901 88.2908 13.9831C88.1858 13.9941 88.0798 13.9791 87.9818 13.9411C87.8838 13.9031 87.7958 13.8431 87.7248 13.7651C87.6028 13.6131 87.5398 13.4231 87.5458 13.2291C87.5508 13.0161 87.6088 12.8081 87.7148 12.6231C87.8258 12.4041 87.9728 12.2061 88.1518 12.0371C88.0298 12.0381 87.9078 12.0621 87.7938 12.1071C87.6728 12.1621 87.5558 12.2291 87.4468 12.3051C87.2588 12.4571 87.1008 12.6431 86.9798 12.8511C86.8158 13.1451 86.6658 13.4461 86.5328 13.7551C86.2698 14.3301 85.9358 14.8701 85.5398 15.3641C85.1738 15.7751 84.6818 16.0551 84.1398 16.1581C84.8328 16.1671 85.5128 16.3411 86.1258 16.6651C86.3718 16.8061 86.5728 17.0121 86.7078 17.2611C86.8428 17.5101 86.9068 17.7921 86.8908 18.0751C86.9038 18.2431 86.9038 18.4121 86.8908 18.5811L86.5038 20.4971C86.4908 20.6231 86.4908 20.7491 86.5038 20.8751C86.4978 20.9301 86.5048 20.9861 86.5218 21.0391C86.5388 21.0921 86.5658 21.1411 86.6028 21.1831C86.6968 21.2521 86.8138 21.2841 86.9308 21.2721C87.0768 21.2591 87.2168 21.2111 87.3408 21.1341C87.4658 21.0561 87.5698 20.9501 87.6458 20.8251C87.9438 20.3591 88.1768 19.8541 88.3408 19.3261L88.5688 18.6211H88.9268L88.4698 20.0111C88.0518 21.3351 87.2978 21.9971 86.2058 21.9971C85.8778 22.0131 85.5558 21.9071 85.3018 21.6991C85.1818 21.5771 85.0898 21.4301 85.0308 21.2691C84.9728 21.1081 84.9498 20.9361 84.9648 20.7661C84.9618 20.5711 84.9858 20.3781 85.0338 20.1901L85.3808 18.5511C85.4328 18.3191 85.4628 18.0831 85.4708 17.8461C85.4848 17.6361 85.4458 17.4261 85.3578 17.2351C85.2688 17.0441 85.1338 16.8791 84.9648 16.7541C84.4318 16.4591 83.8348 16.3021 83.2268 16.2971L81.5088 21.6791H79.8508L83.6338 8.98908C83.6848 8.82108 83.7158 8.64808 83.7228 8.47208C83.7278 8.36008 83.7028 8.24908 83.6508 8.14908C83.5988 8.05008 83.5198 7.96608 83.4248 7.90608C83.1128 7.76908 82.7728 7.70708 82.4318 7.72808L82.5418 7.33008C83.7328 7.34808 84.9118 7.07908 85.9778 6.54608L83.1968 16.0491C83.7058 16.0241 84.2018 15.8811 84.6468 15.6321C84.9848 15.4301 85.2728 15.1551 85.4908 14.8281C85.7298 14.4421 85.9418 14.0411 86.1258 13.6261C86.2628 13.3041 86.4218 12.9921 86.6028 12.6931C86.7368 12.4521 86.9198 12.2431 87.1388 12.0771C87.4718 11.8091 87.8828 11.6561 88.3108 11.6401C88.6058 11.6281 88.8938 11.7321 89.1148 11.9281Z" fill="#BB2C27"/>
<path d="M104.983 19.2762C104.757 20.0742 104.584 20.8872 104.467 21.7092C103.603 21.7092 102.153 21.6592 100.138 21.6592C97.3567 21.6592 95.2817 21.6592 93.8907 21.7092L93.9907 21.3312C94.3257 21.3172 94.6587 21.2672 94.9837 21.1832C95.2047 21.0992 95.3927 20.9452 95.5197 20.7462C95.7197 20.4202 95.8677 20.0652 95.9567 19.6932L98.4687 10.2302C98.5547 9.93223 98.6077 9.62623 98.6277 9.31623C98.6387 9.20823 98.6187 9.09923 98.5687 9.00223C98.5197 8.90623 98.4437 8.82523 98.3497 8.77023C98.0317 8.65523 97.6957 8.59823 97.3567 8.60123L97.4557 8.21423C98.1317 8.21423 99.1737 8.27423 100.604 8.27423C101.796 8.27423 102.789 8.27423 103.583 8.21423L103.494 8.60123C103.158 8.60723 102.824 8.65723 102.501 8.75023C102.275 8.83023 102.082 8.98423 101.954 9.18723C101.773 9.51823 101.639 9.87223 101.557 10.2402L98.9657 19.6932C98.8847 19.9992 98.8287 20.3112 98.7967 20.6262C98.7827 20.7322 98.8027 20.8392 98.8517 20.9342C98.9017 21.0282 98.9797 21.1042 99.0747 21.1532C99.3957 21.2502 99.7317 21.2912 100.068 21.2722H100.833C101.699 21.2842 102.542 20.9922 103.215 20.4482C104.031 19.6982 104.646 18.7562 105.003 17.7072H105.43C105.251 18.2212 105.101 18.7452 104.983 19.2762Z" fill="#BB2C27"/>
<path d="M109.044 12.9013C109.044 12.6433 108.925 12.5143 108.696 12.5143C108.571 12.5213 108.45 12.5563 108.341 12.6183C108.233 12.6813 108.14 12.7673 108.071 12.8713C107.819 13.2253 107.618 13.6133 107.475 14.0233L107.098 15.0163H106.73L107.266 13.5663C107.417 12.9833 107.762 12.4693 108.244 12.1083C108.726 11.7473 109.316 11.5613 109.918 11.5803C110.15 11.5603 110.384 11.5893 110.604 11.6643C110.825 11.7393 111.028 11.8593 111.199 12.0173C111.335 12.1673 111.44 12.3433 111.508 12.5343C111.576 12.7253 111.606 12.9273 111.596 13.1293C111.593 13.5133 111.523 13.8933 111.387 14.2513L109.402 20.0903C109.34 20.2703 109.303 20.4573 109.292 20.6463C109.292 20.9143 109.421 21.0433 109.67 21.0433C109.784 21.0343 109.895 21.0003 109.996 20.9463C110.097 20.8913 110.185 20.8163 110.256 20.7263C110.53 20.3693 110.739 19.9653 110.871 19.5343L111.219 18.6213H111.576L111.08 20.0113C110.95 20.5903 110.622 21.1063 110.152 21.4683C109.683 21.8313 109.101 22.0183 108.508 21.9973C107.356 21.9973 106.77 21.4703 106.77 20.4183C106.787 19.9223 106.884 19.4323 107.058 18.9683L108.925 13.4973C108.986 13.3033 109.026 13.1033 109.044 12.9013ZM110.206 7.42031C110.595 7.11131 111.08 6.95031 111.576 6.96331C111.933 6.95331 112.284 7.06531 112.569 7.28131C112.694 7.38631 112.792 7.51931 112.858 7.66931C112.923 7.81931 112.954 7.98131 112.947 8.14531C112.951 8.38531 112.902 8.62331 112.802 8.84131C112.703 9.05931 112.555 9.25231 112.37 9.40631C111.979 9.74231 111.476 9.92031 110.96 9.90231C110.581 9.92931 110.206 9.81231 109.908 9.57531C109.788 9.45731 109.696 9.31431 109.639 9.15531C109.582 8.99731 109.562 8.82831 109.58 8.66131C109.586 8.42131 109.645 8.18431 109.753 7.97031C109.861 7.75531 110.016 7.56731 110.206 7.42031Z" fill="#BB2C27"/>
<path d="M121.685 12.3353C122.123 12.9763 122.332 13.7453 122.281 14.5203C122.258 15.6603 122.008 16.7843 121.546 17.8263C121.09 18.9673 120.377 19.9873 119.46 20.8053C118.614 21.5843 117.503 22.0143 116.352 22.0073C116.01 22.0153 115.67 21.9433 115.359 21.7983C115.084 21.6783 114.855 21.4723 114.704 21.2123C114.316 21.2413 113.935 21.3283 113.572 21.4703C113.175 21.6093 112.718 21.8083 112.212 22.0463L111.924 21.9173C112.092 21.5533 112.225 21.1743 112.321 20.7853L115.776 9.01826C115.829 8.84426 115.856 8.66426 115.856 8.48226C115.862 8.37226 115.839 8.26326 115.788 8.16526C115.737 8.06726 115.661 7.98526 115.568 7.92626C115.255 7.79226 114.915 7.73426 114.575 7.75726L114.684 7.36026C115.497 7.35126 116.308 7.27126 117.107 7.12226C117.786 6.99226 118.45 6.79926 119.093 6.54626L116.859 14.2913C117.208 13.5233 117.697 12.8263 118.299 12.2363C118.727 11.8193 119.3 11.5843 119.897 11.5803C120.234 11.5583 120.57 11.6143 120.881 11.7453C121.191 11.8763 121.467 12.0783 121.685 12.3353ZM117.574 20.2093C118.19 19.2953 118.659 18.2903 118.964 17.2303C119.301 16.1673 119.482 15.0593 119.5 13.9443C119.52 13.6043 119.462 13.2653 119.332 12.9513C119.29 12.8573 119.222 12.7773 119.135 12.7233C119.048 12.6683 118.948 12.6403 118.845 12.6433C118.487 12.6433 118.09 12.9613 117.654 13.6363C117.147 14.4053 116.727 15.2273 116.402 16.0883L114.953 21.1033C115.055 21.2343 115.186 21.3413 115.336 21.4153C115.485 21.4893 115.65 21.5283 115.816 21.5303C116.196 21.4723 116.554 21.3213 116.861 21.0913C117.168 20.8603 117.412 20.5573 117.574 20.2093Z" fill="#BB2C27"/>
<path d="M123.78 15.5723C124.238 14.4673 124.965 13.4943 125.895 12.7423C126.839 11.9743 128.025 11.5653 129.242 11.5903C129.659 11.5653 130.077 11.6233 130.472 11.7633C130.866 11.9033 131.227 12.1213 131.535 12.4043C131.819 12.7203 132.036 13.0893 132.174 13.4903C132.312 13.8903 132.369 14.3153 132.34 14.7383C132.322 15.8643 132.079 16.9753 131.625 18.0053C131.162 19.1123 130.432 20.0883 129.5 20.8453C128.556 21.6123 127.369 22.0173 126.153 21.9873C125.738 22.0153 125.321 21.9583 124.929 21.8193C124.536 21.6813 124.176 21.4643 123.87 21.1823C123.586 20.8653 123.369 20.4943 123.231 20.0923C123.093 19.6893 123.037 19.2633 123.065 18.8393C123.082 17.7133 123.324 16.6023 123.78 15.5723ZM127.603 13.3183C126.988 14.3563 126.513 15.4713 126.193 16.6353C125.831 17.8233 125.638 19.0563 125.617 20.2993C125.594 20.6373 125.648 20.9773 125.776 21.2923C125.817 21.3883 125.887 21.4693 125.976 21.5243C126.064 21.5793 126.168 21.6063 126.273 21.5993C126.739 21.5993 127.266 21.1633 127.802 20.2793C128.419 19.2593 128.893 18.1603 129.212 17.0123C129.574 15.8073 129.765 14.5563 129.778 13.2983C129.796 12.9603 129.746 12.6223 129.629 12.3053C129.589 12.2133 129.522 12.1353 129.437 12.0823C129.352 12.0293 129.252 12.0033 129.152 12.0073C128.676 11.9673 128.169 12.4143 127.603 13.3183Z" fill="#BB2C27"/>
<path d="M143.153 18.5712H143.52L143.004 20.0112C142.816 20.6152 142.44 21.1442 141.932 21.5202C141.485 21.8262 140.954 21.9862 140.412 21.9772C140.112 21.9872 139.813 21.9302 139.539 21.8082C139.312 21.7132 139.123 21.5462 139.002 21.3312C138.883 21.0882 138.825 20.8182 138.834 20.5472C138.851 20.1282 138.914 19.7112 139.022 19.3062L139.539 17.3202C139.153 18.2972 138.674 19.2352 138.109 20.1202C137.756 20.6912 137.281 21.1762 136.718 21.5402C136.235 21.8172 135.686 21.9582 135.13 21.9472C134.664 21.9842 134.203 21.8422 133.839 21.5502C133.692 21.3962 133.578 21.2132 133.504 21.0142C133.431 20.8142 133.399 20.6012 133.412 20.3882C133.42 19.9372 133.504 19.4912 133.66 19.0672L135.507 13.4472C135.575 13.2692 135.615 13.0812 135.626 12.8912C135.626 12.6232 135.507 12.4842 135.259 12.4842C135.142 12.4942 135.028 12.5282 134.926 12.5842C134.823 12.6412 134.734 12.7182 134.663 12.8122C134.394 13.1672 134.189 13.5672 134.057 13.9932L133.72 14.9072H133.352L133.829 13.5172C133.962 12.9412 134.289 12.4292 134.756 12.0672C135.223 11.7052 135.8 11.5162 136.391 11.5312C137.543 11.5312 138.129 12.0672 138.129 13.1202C138.11 13.6132 138.02 14.1022 137.861 14.5692L136.143 19.7132C136.043 19.9772 135.986 20.2552 135.974 20.5372C135.974 20.8352 136.093 20.9742 136.331 20.9742C136.718 20.9742 137.165 20.6072 137.682 19.8522C138.308 18.9152 138.836 17.9172 139.261 16.8732C139.807 15.5792 140.274 14.2522 140.66 12.9012L140.939 11.8482C141.869 11.8492 142.796 11.7592 143.709 11.5802L141.316 20.0902C141.255 20.2972 141.218 20.5102 141.207 20.7262C141.202 20.7702 141.207 20.8142 141.222 20.8562C141.237 20.8972 141.261 20.9352 141.293 20.9652C141.324 20.9962 141.362 21.0192 141.404 21.0332C141.446 21.0462 141.491 21.0502 141.535 21.0442C141.66 21.0402 141.785 21.0082 141.896 20.9502C142.009 20.8912 142.106 20.8082 142.18 20.7062C142.433 20.3492 142.628 19.9532 142.756 19.5342L143.153 18.5712Z" fill="#BB2C27"/>
<path d="M154.98 18.6208L154.503 20.0108C154.371 20.5848 154.045 21.0958 153.58 21.4578C153.115 21.8188 152.54 22.0098 151.951 21.9968C151.665 22.0248 151.376 21.9828 151.109 21.8738C150.842 21.7648 150.607 21.5918 150.422 21.3718C150.248 21.1068 150.161 20.7938 150.174 20.4778C150.193 19.9608 150.297 19.4508 150.482 18.9688L152.2 13.8148C152.295 13.5528 152.352 13.2788 152.369 13.0008C152.369 12.7028 152.249 12.5538 152.001 12.5538C151.753 12.5538 151.167 12.9408 150.621 13.7258C149.981 14.6908 149.436 15.7148 148.992 16.7838C148.435 18.0768 147.957 19.4038 147.562 20.7558L147.314 21.7488H144.623L146.897 13.4768C146.969 13.2798 147.009 13.0718 147.016 12.8618C147.016 12.6328 146.907 12.5138 146.688 12.5138C146.564 12.5188 146.443 12.5518 146.333 12.6108C146.222 12.6688 146.127 12.7518 146.053 12.8518C145.797 13.2088 145.6 13.6048 145.467 14.0228L145.11 15.0158H144.742L145.259 13.5668C145.433 12.9758 145.778 12.4508 146.252 12.0568C146.685 11.7478 147.208 11.5878 147.741 11.6008C148.833 11.6008 149.379 12.1268 149.379 13.1698C149.377 13.5418 149.328 13.9118 149.231 14.2718L148.635 16.5848C149.041 15.5478 149.543 14.5498 150.134 13.6058C150.501 13.0028 150.996 12.4878 151.584 12.0968C152.074 11.7988 152.638 11.6438 153.212 11.6498C154.364 11.6498 154.93 12.1668 154.93 13.1788C154.918 13.6398 154.834 14.0948 154.682 14.5298L152.855 20.0908C152.789 20.2688 152.752 20.4568 152.746 20.6468C152.746 20.9148 152.865 21.0438 153.103 21.0438C153.22 21.0348 153.335 21.0028 153.439 20.9478C153.543 20.8938 153.635 20.8178 153.709 20.7258C153.976 20.3668 154.177 19.9638 154.305 19.5348L154.652 18.6208H154.98ZM155.834 6.06983L155.933 6.33782C155.003 6.75382 154.135 7.29482 153.352 7.94582C152.59 8.55782 151.921 9.27782 151.366 10.0808H151.018C150.884 9.30182 150.622 8.55082 150.243 7.85682C149.867 7.24582 149.358 6.72682 148.754 6.33782L148.823 6.06983C149.503 6.20483 150.168 6.40482 150.809 6.66482C151.352 6.89082 151.873 7.16383 152.369 7.47983C153.467 6.88083 154.63 6.40783 155.834 6.06983Z" fill="#BB2C27"/>
<path d="M14.224 11.6799H14.164L9.01099 16.7139C9.96999 16.0989 11.079 15.7559 12.218 15.7209C12.554 15.7099 12.889 15.7539 13.211 15.8509L13.608 15.9799L14.373 13.1099C14.472 12.8149 14.529 12.5069 14.542 12.1959C14.55 12.0879 14.524 11.9789 14.467 11.8869C14.41 11.7939 14.325 11.7219 14.224 11.6799Z" fill="#BB2C27"/>
<path d="M27.4903 11.5705C26.6333 10.5345 26.1753 9.22648 26.1993 7.88248C26.2223 6.53848 26.7263 5.24748 27.6193 4.24248C27.2233 4.31348 26.8203 4.35048 26.4183 4.35148C25.1793 4.35048 23.9623 4.02448 22.8883 3.40548C21.8153 2.78748 20.9233 1.89748 20.3013 0.826481C18.3613 1.49148 16.3243 1.82748 14.2733 1.81948C12.2233 1.82748 10.1863 1.49148 8.24635 0.826481C7.62635 1.89748 6.73634 2.78748 5.66434 3.40548C4.59234 4.02448 3.37735 4.35048 2.13935 4.35148C1.73335 4.35048 1.32834 4.31448 0.928345 4.24248C1.84534 5.27348 2.35134 6.60548 2.34834 7.98548C2.35134 9.29348 1.89834 10.5615 1.06734 11.5705C1.06734 11.5705 -0.720655 23.6655 14.2733 30.9435C29.2673 23.6655 27.5203 11.6105 27.5203 11.6105L27.4903 11.5705ZM21.0153 5.29048C20.9583 5.39248 20.8813 5.48248 20.7873 5.55348C20.4903 5.80048 20.1553 5.99848 19.7943 6.13848L14.6313 11.1835H18.0673L17.9873 11.5105C17.6523 11.5245 17.3193 11.5745 16.9943 11.6595C16.7743 11.7395 16.5853 11.8895 16.4583 12.0865C16.2883 12.4005 16.1583 12.7335 16.0713 13.0795L15.1373 16.5555H15.2563C15.5783 16.6515 15.9143 16.6955 16.2493 16.6845C16.4283 16.7015 16.6083 16.6825 16.7793 16.6275C16.9493 16.5725 17.1073 16.4845 17.2423 16.3665C17.3523 16.2445 17.4373 16.1015 17.4913 15.9465C17.5463 15.7915 17.5693 15.6275 17.5603 15.4635C17.5603 14.7285 17.1133 14.2815 16.2303 14.1025L16.2993 13.7355C16.8183 13.8165 17.3043 14.0445 17.6993 14.3905C17.8923 14.5875 18.0433 14.8225 18.1403 15.0805C18.2383 15.3385 18.2803 15.6145 18.2653 15.8895C18.2773 16.1895 18.2303 16.4885 18.1263 16.7695C18.0223 17.0505 17.8633 17.3085 17.6593 17.5285C17.4473 17.7445 17.1913 17.9145 16.9093 18.0255C16.6273 18.1365 16.3243 18.1875 16.0213 18.1735C15.6153 18.2205 15.2043 18.1585 14.8293 17.9955L14.7503 17.9455L13.5783 22.3145C13.4793 22.6095 13.4223 22.9175 13.4093 23.2285C13.3963 23.3315 13.4153 23.4355 13.4653 23.5275C13.5153 23.6185 13.5933 23.6905 13.6873 23.7345C14.0063 23.8445 14.3443 23.8885 14.6813 23.8635H16.0313C16.6633 23.8905 17.2943 23.7785 17.8783 23.5355C18.3593 23.3055 18.7633 22.9395 19.0403 22.4835C19.4463 21.8235 19.7793 21.1205 20.0333 20.3885H20.4603C20.3803 20.6265 20.2213 21.1325 20.0033 21.9075C19.7853 22.6905 19.6163 23.4865 19.4963 24.2905C18.6523 24.2905 17.2423 24.2315 15.2463 24.2315C12.8703 24.2315 11.0833 24.2505 9.88434 24.2905L9.97434 23.9135C10.3103 23.9115 10.6443 23.8605 10.9673 23.7645C11.1873 23.6885 11.3733 23.5375 11.4933 23.3375C11.6733 23.0275 11.8073 22.6925 11.8903 22.3445L13.3403 16.9225C13.1223 16.7735 12.9133 16.6345 12.7343 16.5355C12.4283 16.3735 12.0883 16.2875 11.7413 16.2875C11.3073 16.2805 10.8743 16.3445 10.4603 16.4755C9.91834 16.6485 9.38834 16.8535 8.87234 17.0915C8.67534 17.3885 8.43434 17.6535 8.15734 17.8755C7.97434 18.0395 7.74534 18.1395 7.50134 18.1635C7.40734 18.1695 7.31435 18.1375 7.24335 18.0745C7.20335 18.0495 7.17134 18.0135 7.15034 17.9715C7.12934 17.9295 7.12035 17.8835 7.12435 17.8365C7.13935 17.7225 7.17734 17.6135 7.23734 17.5165C7.29734 17.4185 7.37735 17.3345 7.47135 17.2705C7.80035 17.0215 8.17034 16.8335 8.56434 16.7145L13.7773 11.5905H10.7983L10.9273 11.2135H14.1843L19.3573 6.12848C18.3953 6.73848 17.2883 7.08148 16.1503 7.12148C15.8143 7.13148 15.4793 7.08748 15.1573 6.99248C14.8793 6.90348 14.5323 6.77448 14.1643 6.60548C13.7973 6.43648 13.3903 6.29748 13.1123 6.20848C12.7893 6.11748 12.4543 6.07348 12.1193 6.07948C11.9393 6.06048 11.7583 6.07948 11.5873 6.13648C11.4163 6.19248 11.2583 6.28548 11.1263 6.40648C11.0123 6.52748 10.9253 6.66948 10.8683 6.82448C10.8123 6.98048 10.7883 7.14548 10.7983 7.31048C10.7983 8.03548 11.2453 8.49248 12.1383 8.66148L12.0693 9.03848C11.5443 8.95948 11.0543 8.72848 10.6593 8.37348C10.4623 8.18048 10.3103 7.94748 10.2123 7.69048C10.1143 7.43348 10.0743 7.15848 10.0933 6.88348C10.0813 6.58148 10.1303 6.28048 10.2363 5.99748C10.3413 5.71448 10.5023 5.45548 10.7093 5.23548C10.9223 5.02048 11.1783 4.85248 11.4603 4.74248C11.7423 4.63348 12.0453 4.58448 12.3473 4.59948C12.7423 4.56048 13.1403 4.62948 13.4993 4.79848C13.8813 5.01748 14.2433 5.27048 14.5813 5.55348C14.9093 5.82948 15.2623 6.07548 15.6343 6.28748C15.9413 6.44548 16.2813 6.53048 16.6273 6.53648C17.0623 6.53948 17.4943 6.47248 17.9083 6.33748C18.4113 6.15748 18.9023 5.94548 19.3773 5.70248C19.5713 5.40348 19.8133 5.13848 20.0923 4.91748C20.2723 4.74848 20.5023 4.64348 20.7483 4.61948C20.7953 4.61648 20.8433 4.62348 20.8883 4.64048C20.9323 4.65748 20.9733 4.68448 21.0063 4.71848C21.0443 4.74548 21.0743 4.78148 21.0933 4.82348C21.1123 4.86548 21.1203 4.91148 21.1153 4.95748C21.1053 5.07348 21.0713 5.18748 21.0153 5.29048Z" fill="#BB2C27"/>
</svg>
