<svg viewBox="0 0 127 50" fill="none" xmlns="http://www.w3.org/2000/svg">
<path d="M16.4092 26.1181C15.4162 26.8681 14.8212 28.0761 13.6352 28.5721C12.6762 29.0311 11.6312 29.2021 10.6042 29.4761C9.2002 29.9011 7.8802 30.5871 6.7422 31.5091C6.2752 31.9081 3.9422 33.7721 5.4722 34.1061C7.2552 33.8111 9.0142 33.3311 10.8442 33.3331C14.6042 33.4241 18.4372 34.8261 22.1552 33.5851C23.8172 33.0181 25.4082 32.0851 26.5532 30.7351C27.5482 29.4691 28.2902 27.9981 29.4232 26.8401C31.3662 26.2831 33.4672 26.6271 35.4882 26.5581C40.3912 28.3421 45.4632 29.5771 50.6172 30.4351C48.2312 31.0541 45.7432 31.6541 43.8182 33.2591C42.3812 32.8931 40.9322 33.6231 39.4672 33.7251C34.4372 33.6801 28.3002 34.2661 25.5932 39.1831C24.8422 40.6131 24.3702 42.1541 23.2502 43.3871C22.4092 44.3731 21.3702 45.1951 20.3962 46.0691C19.7392 46.6501 19.1122 47.2551 18.4682 47.8441C18.1462 48.1381 17.5792 48.6251 17.9792 49.0701C18.1892 49.2711 18.4622 49.1951 18.7012 49.1141C19.7832 48.7341 20.8502 48.3091 21.9392 47.9441C23.6822 47.3761 25.4622 46.9061 27.2912 46.7031C29.1522 46.6101 31.1722 46.9281 32.8332 45.8761C34.4792 45.0431 35.4072 43.4141 36.5832 42.0741C38.0962 41.0901 40.1012 41.0801 41.4342 39.7431C47.1182 34.6691 38.7222 34.1411 52.6682 30.7991C52.6952 30.7941 52.7122 30.7771 52.7362 30.7691C55.8132 31.2181 58.9142 31.5401 62.0192 31.7711C62.6282 31.8921 63.2502 31.9531 63.8862 31.9301C63.9052 31.9251 63.9162 31.9121 63.9312 31.9051C64.9652 31.9701 66.0002 32.0231 67.0342 32.0711C67.2522 32.0811 67.4422 31.9221 67.4702 31.7061C67.4702 31.7031 67.4702 31.7001 67.4712 31.6971C67.5032 31.4531 67.3222 31.2331 67.0752 31.2221C65.4582 31.1481 63.8392 31.0571 62.2222 30.9411C61.8782 30.8621 61.5352 30.7691 61.1812 30.6511C58.6302 29.9241 56.9312 27.8411 55.5412 25.6991C55.0272 22.2731 56.5822 18.1081 54.0312 15.2381C51.7242 12.2881 47.7012 12.1551 44.6902 10.2421C43.9122 9.9051 43.1222 9.2721 42.2432 9.3341C41.4382 9.6511 42.1482 10.5791 42.4232 11.0631C43.3852 12.6031 44.5582 13.9591 45.4132 15.5691C46.3152 17.5651 46.5612 19.8261 47.6452 21.7541C48.7412 23.7471 50.6412 25.3821 52.8432 26.0011C53.3792 26.1371 53.9352 26.1421 54.4822 26.1821C54.6592 26.2001 54.8982 26.1961 55.0142 26.3701C56.0002 28.1171 57.4602 29.6671 59.2012 30.6861C56.3752 30.4241 53.5582 30.0701 50.7652 29.6061C50.6932 29.4461 50.5212 29.3411 50.3392 29.3591C48.3472 28.9381 46.6162 27.6351 45.2622 26.1441C45.3822 26.0011 45.3762 25.7901 45.2832 25.6231C44.3942 23.4941 44.2562 21.0981 43.6592 18.8701C42.1622 11.5421 38.5512 15.1291 35.3052 8.0351C34.2792 6.0621 33.7392 7.5961 33.8332 8.9581C33.5782 16.0871 36.6412 24.5781 44.2152 26.5081C44.9732 26.7881 45.3862 27.6131 46.0242 28.0811C46.1852 28.2391 46.6882 28.5961 47.3062 28.9741C42.0302 27.9031 36.8602 26.3801 31.8972 24.2081C30.1312 22.9701 28.9302 20.9961 28.5692 18.8681C29.9372 17.4691 31.7742 16.5061 31.2142 14.1961C31.1072 13.3261 30.7732 12.3941 30.6982 11.5001C30.6872 10.5431 31.0082 9.54009 31.0822 8.56409C31.2902 6.40609 28.9192 5.31109 28.7652 3.23009C28.6632 2.52909 28.6932 1.90309 28.6992 1.17509C28.6932 0.961095 28.6362 0.683097 28.3872 0.532097C27.7672 0.244097 27.2972 1.0141 26.9152 1.4001C25.6332 2.8251 24.7912 4.5631 24.1002 6.3381C22.3782 10.4531 23.2422 16.2571 27.4362 18.5031C27.8542 18.7281 27.7382 19.3161 27.9042 19.7561C28.1282 20.8051 28.6452 21.7691 29.2062 22.6731C29.2762 22.7691 29.4002 22.9331 29.5612 23.1311C29.4782 23.0891 29.3922 23.0541 29.3062 23.0121C25.7322 21.3021 22.1992 19.3571 19.1802 16.7621C19.3082 16.6071 19.3222 16.3631 19.1742 16.2161C18.6032 15.6351 18.1182 15.0221 17.6912 14.3211C13.0932 5.1061 9.6502 5.4551 0.779198 2.3911C0.361198 2.2731 -0.00780175 2.7341 0.217198 3.1081C0.637198 3.7541 1.1332 4.3541 1.5532 5.0061C5.8902 11.6491 7.6192 16.4121 16.5542 16.9261C17.1692 17.0121 17.7152 17.1131 18.3202 17.3381C18.4222 17.4191 18.5412 17.4461 18.6542 17.4421C20.5082 19.3551 26.9432 22.8801 28.0952 23.3691C29.7792 24.2241 31.4932 24.9911 33.2252 25.6891C32.1652 25.6811 31.1042 25.6941 30.0502 25.8231C25.6272 24.8581 20.4782 23.3001 16.4092 26.1181Z" fill="#F7E6E1"/>
<path d="M110.744 26.1181C111.737 26.8681 112.332 28.0761 113.518 28.5721C114.477 29.0311 115.522 29.2021 116.549 29.4761C117.953 29.9011 119.273 30.5871 120.411 31.5091C120.878 31.9081 123.211 33.7721 121.681 34.1061C119.898 33.8111 118.139 33.3311 116.309 33.3331C112.549 33.4241 108.716 34.8261 104.999 33.5851C103.336 33.0181 101.745 32.0851 100.6 30.7351C99.605 29.4691 98.863 27.9981 97.73 26.8401C95.787 26.2831 93.686 26.6271 91.665 26.5581C86.762 28.3421 81.69 29.5771 76.536 30.4351C78.922 31.0541 81.41 31.6541 83.335 33.2591C84.772 32.8931 86.221 33.6231 87.686 33.7251C92.716 33.6801 98.853 34.2661 101.56 39.1831C102.311 40.6131 102.783 42.1541 103.903 43.3871C104.744 44.3731 105.784 45.1951 106.757 46.0691C107.414 46.6501 108.041 47.2551 108.685 47.8441C109.007 48.1381 109.574 48.6251 109.174 49.0701C108.964 49.2711 108.691 49.1951 108.452 49.1141C107.37 48.7341 106.303 48.3091 105.214 47.9441C103.471 47.3761 101.691 46.9061 99.863 46.7031C98.001 46.6101 95.981 46.9281 94.32 45.8761C92.674 45.0431 91.746 43.4141 90.57 42.0741C89.057 41.0901 87.052 41.0801 85.719 39.7431C80.035 34.6691 88.431 34.1411 74.485 30.7991C74.458 30.7941 74.441 30.7771 74.417 30.7691C71.34 31.2181 68.239 31.5401 65.134 31.7711C64.525 31.8921 63.903 31.9531 63.266 31.9301C63.249 31.9251 63.237 31.9121 63.222 31.9051C62.188 31.9701 61.154 32.0231 60.119 32.0711C59.901 32.0811 59.712 31.9221 59.683 31.7061C59.683 31.7031 59.683 31.7001 59.682 31.6971C59.65 31.4531 59.831 31.2331 60.078 31.2221C61.695 31.1481 63.314 31.0571 64.931 30.9411C65.275 30.8621 65.618 30.7691 65.972 30.6511C68.523 29.9241 70.222 27.8411 71.613 25.6991C72.126 22.2731 70.571 18.1081 73.123 15.2381C75.429 12.2881 79.452 12.1551 82.463 10.2421C83.241 9.9051 84.031 9.2721 84.91 9.3341C85.715 9.6511 85.005 10.5791 84.73 11.0631C83.768 12.6031 82.595 13.9591 81.74 15.5691C80.838 17.5651 80.592 19.8261 79.508 21.7541C78.412 23.7471 76.512 25.3821 74.31 26.0011C73.774 26.1371 73.218 26.1421 72.671 26.1821C72.494 26.2001 72.255 26.1961 72.139 26.3701C71.154 28.1171 69.693 29.6671 67.952 30.6861C70.778 30.4241 73.595 30.0701 76.388 29.6061C76.46 29.4461 76.632 29.3411 76.815 29.3591C78.806 28.9381 80.537 27.6351 81.891 26.1441C81.771 26.0011 81.777 25.7901 81.87 25.6231C82.76 23.4941 82.897 21.0981 83.494 18.8701C84.991 11.5421 88.603 15.1291 91.848 8.0351C92.874 6.0621 93.414 7.5961 93.321 8.9581C93.575 16.0871 90.512 24.5781 82.938 26.5081C82.18 26.7881 81.767 27.6131 81.129 28.0811C80.968 28.2391 80.465 28.5961 79.847 28.9741C85.123 27.9031 90.293 26.3801 95.256 24.2081C97.022 22.9701 98.223 20.9961 98.584 18.8681C97.216 17.4691 95.379 16.5061 95.939 14.1961C96.046 13.3261 96.38 12.3941 96.455 11.5001C96.466 10.5431 96.145 9.54009 96.071 8.56409C95.863 6.40609 98.234 5.31109 98.388 3.23009C98.49 2.52909 98.46 1.90309 98.454 1.17509C98.46 0.961095 98.517 0.683097 98.766 0.532097C99.386 0.244097 99.856 1.0141 100.238 1.4001C101.52 2.8251 102.362 4.5631 103.053 6.3381C104.775 10.4531 103.911 16.2571 99.717 18.5031C99.299 18.7281 99.415 19.3161 99.249 19.7561C99.025 20.8051 98.508 21.7691 97.947 22.6731C97.877 22.7691 97.753 22.9331 97.592 23.1311C97.675 23.0891 97.761 23.0541 97.847 23.0121C101.421 21.3021 104.954 19.3571 107.973 16.7621C107.845 16.6071 107.831 16.3631 107.979 16.2161C108.55 15.6351 109.035 15.0221 109.462 14.3211C114.06 5.1061 117.503 5.4551 126.374 2.3911C126.792 2.2731 127.161 2.7341 126.937 3.1081C126.517 3.7541 126.021 4.3541 125.6 5.0061C121.263 11.6491 119.534 16.4121 110.599 16.9261C109.984 17.0121 109.438 17.1131 108.833 17.3381C108.731 17.4191 108.612 17.4461 108.499 17.4421C106.645 19.3551 100.21 22.8801 99.058 23.3691C97.374 24.2241 95.66 24.9911 93.928 25.6891C94.988 25.6811 96.049 25.6941 97.103 25.8231C101.526 24.8581 106.675 23.3001 110.744 26.1181Z" fill="#F7E6E1"/>
</svg>
